<svg height="170" width="85" version="1.1" xmlns="http://www.w3.org/2000/svg">
<line x1="25.195257533506396000" y1="0.010130465529660258" x2="25.985566265121285000" y2="0.424822422036333140" stroke="orange" stroke-width="5"/>
<line x1="25.195257533506396000" y1="0.010130465529660258" x2="25.985566265121285000" y2="0.424822422036333140" stroke="orange" stroke-width="5"/>
<line x1="25.985566265121285000" y1="0.424822422036333140" x2="27.607866599734578000" y2="1.714276897036741200" stroke="orange" stroke-width="5"/>
<line x1="27.607866599734578000" y1="1.714276897036741200" x2="29.212404025002428000" y2="2.993149746974538900" stroke="orange" stroke-width="5"/>
<line x1="29.212404025002428000" y1="2.993149746974538900" x2="30.150458839890909000" y2="4.845155928016984200" stroke="orange" stroke-width="5"/>
<line x1="30.150458839890909000" y1="4.845155928016984200" x2="30.578511832354799000" y2="6.807037635572983800" stroke="orange" stroke-width="5"/>
<line x1="30.578511832354799000" y1="6.807037635572983800" x2="32.604661044541039000" y2="7.186518353123583200" stroke="orange" stroke-width="5"/>
<line x1="32.604661044541039000" y1="7.186518353123583200" x2="34.603564339201277000" y2="7.562221717694689500" stroke="yellow" stroke-width="5"/>
<line x1="34.603564339201277000" y1="7.562221717694689500" x2="36.383756637964780000" y2="7.957963720015595900" stroke="yellow" stroke-width="5"/>
<line x1="36.383756637964780000" y1="7.957963720015595900" x2="38.155059617521431000" y2="7.850398436756020000" stroke="orange" stroke-width="5"/>
<line x1="38.155059617521431000" y1="7.850398436756020000" x2="39.822847898710620000" y2="8.651048835626634000" stroke="orange" stroke-width="5"/>
<line x1="39.822847898710620000" y1="8.651048835626634000" x2="41.592367256554525000" y2="9.506557531166610200" stroke="orange" stroke-width="5"/>
<line x1="41.592367256554525000" y1="9.506557531166610200" x2="43.043890760276540000" y2="10.942701616431513000" stroke="orange" stroke-width="5"/>
<line x1="43.043890760276540000" y1="10.942701616431513000" x2="44.153538081657082000" y2="11.615732543076536000" stroke="orange" stroke-width="5"/>
<line x1="44.153538081657082000" y1="11.615732543076536000" x2="45.277041843828549000" y2="12.150007219643914000" stroke="orange" stroke-width="5"/>
<line x1="45.277041843828549000" y1="12.150007219643914000" x2="46.402561986480727000" y2="12.750906144871051000" stroke="orange" stroke-width="5"/>
<line x1="46.402561986480727000" y1="12.750906144871051000" x2="47.757060210941411000" y2="14.135216633359425000" stroke="orange" stroke-width="5"/>
<line x1="47.757060210941411000" y1="14.135216633359425000" x2="49.104783384062813000" y2="15.666449874524309000" stroke="red" stroke-width="5"/>
<line x1="49.104783384062813000" y1="15.666449874524309000" x2="49.448712038564679000" y2="17.826140004179457000" stroke="red" stroke-width="5"/>
<line x1="49.448712038564679000" y1="17.826140004179457000" x2="49.231819227567442000" y2="20.210022315245634000" stroke="red" stroke-width="5"/>
<line x1="49.231819227567442000" y1="20.210022315245634000" x2="48.768824784632557000" y2="22.856891980565376000" stroke="red" stroke-width="5"/>
<line x1="48.768824784632557000" y1="22.856891980565376000" x2="48.865040650270963000" y2="25.767469392189994000" stroke="red" stroke-width="5"/>
<line x1="48.865040650270963000" y1="25.767469392189994000" x2="48.773248948945209000" y2="28.346019227708190000" stroke="orange" stroke-width="5"/>
<line x1="48.773248948945209000" y1="28.346019227708190000" x2="47.358706880704538000" y2="31.548734051767742000" stroke="orange" stroke-width="5"/>
<line x1="47.358706880704538000" y1="31.548734051767742000" x2="45.842325614635030000" y2="35.437940732975363000" stroke="orange" stroke-width="5"/>
<line x1="45.842325614635030000" y1="35.437940732975363000" x2="44.318563009818760000" y2="39.350188328286208000" stroke="yellow" stroke-width="5"/>
<line x1="44.318563009818760000" y1="39.350188328286208000" x2="43.104787768207437000" y2="42.917787448917039000" stroke="yellow" stroke-width="5"/>
<line x1="43.104787768207437000" y1="42.917787448917039000" x2="41.567782499954106000" y2="45.982086091349210000" stroke="blue" stroke-width="5"/>
<line x1="41.567782499954106000" y1="45.982086091349210000" x2="39.562950382140244000" y2="48.760542961880439000" stroke="blue" stroke-width="5"/>
<line x1="39.562950382140244000" y1="48.760542961880439000" x2="38.076579056510738000" y2="51.411735436032885000" stroke="blue" stroke-width="5"/>
<line x1="38.076579056510738000" y1="51.411735436032885000" x2="37.437962338925317000" y2="54.239627019674920000" stroke="blue" stroke-width="5"/>
<line x1="37.437962338925317000" y1="54.239627019674920000" x2="37.258101376608941000" y2="57.240646144142140000" stroke="yellow" stroke-width="5"/>
<line x1="37.258101376608941000" y1="57.240646144142140000" x2="36.520869671548283000" y2="60.123049940063623000" stroke="yellow" stroke-width="5"/>
<line x1="36.520869671548283000" y1="60.123049940063623000" x2="36.380701989219986000" y2="62.739405220300014000" stroke="yellow" stroke-width="5"/>
<line x1="36.380701989219986000" y1="62.739405220300014000" x2="37.225271101592710000" y2="65.511787675862166000" stroke="yellow" stroke-width="5"/>
<line x1="37.225271101592710000" y1="65.511787675862166000" x2="38.065497982773635000" y2="68.424100816692416000" stroke="orange" stroke-width="5"/>
<line x1="38.065497982773635000" y1="68.424100816692416000" x2="38.721245584910740000" y2="72.388027248102418000" stroke="orange" stroke-width="5"/>
<line x1="38.721245584910740000" y1="72.388027248102418000" x2="38.963728114528557000" y2="77.275460641277505000" stroke="orange" stroke-width="5"/>
<line x1="38.963728114528557000" y1="77.275460641277505000" x2="39.290513338898869000" y2="81.777323301080429000" stroke="orange" stroke-width="5"/>
<line x1="39.290513338898869000" y1="81.777323301080429000" x2="39.501506843459950000" y2="86.102452730713082000" stroke="orange" stroke-width="5"/>
<line x1="39.501506843459950000" y1="86.102452730713082000" x2="40.323108097048745000" y2="91.311128209552265000" stroke="orange" stroke-width="5"/>
<line x1="40.323108097048745000" y1="91.311128209552265000" x2="41.503454562025311000" y2="94.726034001964052000" stroke="orange" stroke-width="5"/>
<line x1="41.503454562025311000" y1="94.726034001964052000" x2="42.860041246232647000" y2="97.951580285026324000" stroke="orange" stroke-width="5"/>
<line x1="42.860041246232647000" y1="97.951580285026324000" x2="44.393132485777485000" y2="101.281541224824660000" stroke="orange" stroke-width="5"/>
<line x1="44.393132485777485000" y1="101.281541224824660000" x2="45.970796551484874000" y2="104.871625141552610000" stroke="orange" stroke-width="5"/>
<line x1="45.970796551484874000" y1="104.871625141552610000" x2="47.076664879847101000" y2="108.280475452025560000" stroke="orange" stroke-width="5"/>
<line x1="47.076664879847101000" y1="108.280475452025560000" x2="49.258252318491643000" y2="110.758260644730970000" stroke="orange" stroke-width="5"/>
<line x1="49.258252318491643000" y1="110.758260644730970000" x2="51.315349582291802000" y2="112.715459594618450000" stroke="orange" stroke-width="5"/>
<line x1="51.315349582291802000" y1="112.715459594618450000" x2="53.295172086292951000" y2="114.553385898696580000" stroke="orange" stroke-width="5"/>
<line x1="53.295172086292951000" y1="114.553385898696580000" x2="55.427100595533844000" y2="117.460265131127610000" stroke="orange" stroke-width="5"/>
<line x1="55.427100595533844000" y1="117.460265131127610000" x2="56.938070114322826000" y2="120.149844694636190000" stroke="orange" stroke-width="5"/>
<line x1="56.938070114322826000" y1="120.149844694636190000" x2="59.693182044297323000" y2="123.975244769280750000" stroke="orange" stroke-width="5"/>
<line x1="59.693182044297323000" y1="123.975244769280750000" x2="62.694245571128903000" y2="127.736939353314900000" stroke="orange" stroke-width="5"/>
<line x1="62.694245571128903000" y1="127.736939353314900000" x2="65.106740562697780000" y2="132.276926573564340000" stroke="orange" stroke-width="5"/>
<line x1="65.106740562697780000" y1="132.276926573564340000" x2="67.232025971859656000" y2="136.536578754835230000" stroke="orange" stroke-width="5"/>
<line x1="67.232025971859656000" y1="136.536578754835230000" x2="69.106539184879352000" y2="140.039239555108050000" stroke="orange" stroke-width="5"/>
<line x1="69.106539184879352000" y1="140.039239555108050000" x2="72.032719273654990000" y2="144.188616978787880000" stroke="orange" stroke-width="5"/>
<line x1="72.032719273654990000" y1="144.188616978787880000" x2="74.690538524072480000" y2="146.712079035135190000" stroke="orange" stroke-width="5"/>
<line x1="74.690538524072480000" y1="146.712079035135190000" x2="76.969754679649981000" y2="149.255566634157930000" stroke="orange" stroke-width="5"/>
<line x1="76.969754679649981000" y1="149.255566634157930000" x2="78.693452461441296000" y2="151.189022104513870000" stroke="orange" stroke-width="5"/>
<line x1="78.693452461441296000" y1="151.189022104513870000" x2="78.959618940618526000" y2="152.960261526845330000" stroke="orange" stroke-width="5"/>
<line x1="78.959618940618526000" y1="152.960261526845330000" x2="79.438743710345136000" y2="154.223229788392330000" stroke="orange" stroke-width="5"/>
<line x1="79.438743710345136000" y1="154.223229788392330000" x2="80.009782860452560000" y2="155.201752372887030000" stroke="orange" stroke-width="5"/>
<line x1="80.009782860452560000" y1="155.201752372887030000" x2="79.965824607751443000" y2="156.144028366509560000" stroke="orange" stroke-width="5"/>
<line x1="79.965824607751443000" y1="156.144028366509560000" x2="79.747735368285220000" y2="157.407275967258410000" stroke="orange" stroke-width="5"/>
<line x1="79.747735368285220000" y1="157.407275967258410000" x2="80.034836713612009000" y2="159.513956076402370000" stroke="orange" stroke-width="5"/>
<line x1="80.034836713612009000" y1="159.513956076402370000" x2="79.619446152446329000" y2="160.142343089707680000" stroke="orange" stroke-width="5"/>
<line x1="79.619446152446329000" y1="160.142343089707680000" x2="79.079133768523292000" y2="160.846407486931300000" stroke="orange" stroke-width="5"/>
<line x1="79.079133768523292000" y1="160.846407486931300000" x2="78.806533974796992000" y2="160.610558329784850000" stroke="red" stroke-width="5"/>
<line x1="78.806533974796992000" y1="160.610558329784850000" x2="79.853829295218361000" y2="159.491888921784810000" stroke="red" stroke-width="5"/>
<line x1="79.853829295218361000" y1="159.491888921784810000" x2="80.858997301973588000" y2="158.381819935414800000" stroke="red" stroke-width="5"/>
<line x1="80.858997301973588000" y1="158.381819935414800000" x2="81.192007953342909000" y2="157.744377234973430000" stroke="orange" stroke-width="5"/>
<line x1="81.192007953342909000" y1="157.744377234973430000" x2="80.756612254641581000" y2="157.975513944690650000" stroke="orange" stroke-width="5"/>
<line x1="80.756612254641581000" y1="157.975513944690650000" x2="80.163179331185404000" y2="158.077185625337390000" stroke="orange" stroke-width="5"/>
<line x1="80.163179331185404000" y1="158.077185625337390000" x2="77.980048031987764000" y2="157.387295738154880000" stroke="orange" stroke-width="5"/>
<line x1="77.980048031987764000" y1="157.387295738154880000" x2="75.659634714134995000" y2="156.201807156562670000" stroke="orange" stroke-width="5"/>
<line x1="75.659634714134995000" y1="156.201807156562670000" x2="73.397070221193829000" y2="155.039379133336890000" stroke="yellow" stroke-width="5"/>
<line x1="73.397070221193829000" y1="155.039379133336890000" x2="70.778829143483563000" y2="153.813195501598190000" stroke="yellow" stroke-width="5"/>
<line x1="70.778829143483563000" y1="153.813195501598190000" x2="69.633562511635176000" y2="153.769705018716590000" stroke="blue" stroke-width="5"/>
<line x1="69.633562511635176000" y1="153.769705018716590000" x2="68.161021519319490000" y2="153.546125995974050000" stroke="blue" stroke-width="5"/>
<line x1="68.161021519319490000" y1="153.546125995974050000" x2="65.726035852551703000" y2="152.834877049090520000" stroke="blue" stroke-width="5"/>
<line x1="65.726035852551703000" y1="152.834877049090520000" x2="63.492338450953781000" y2="152.383828570000990000" stroke="blue" stroke-width="5"/>
<line x1="63.492338450953781000" y1="152.383828570000990000" x2="61.547987742432561000" y2="152.008362869689250000" stroke="blue" stroke-width="5"/>
<line x1="61.547987742432561000" y1="152.008362869689250000" x2="57.894280583206644000" y2="151.072899543874460000" stroke="blue" stroke-width="5"/>
<line x1="57.894280583206644000" y1="151.072899543874460000" x2="54.092080782935341000" y2="150.340340018157950000" stroke="yellow" stroke-width="5"/>
<line x1="54.092080782935341000" y1="150.340340018157950000" x2="49.352556496476268000" y2="149.933829222373650000" stroke="yellow" stroke-width="5"/>
<line x1="49.352556496476268000" y1="149.933829222373650000" x2="44.362020690167100000" y2="148.908148207535360000" stroke="orange" stroke-width="5"/>
<line x1="44.362020690167100000" y1="148.908148207535360000" x2="41.070002962703512000" y2="148.128292695057920000" stroke="orange" stroke-width="5"/>
<line x1="41.070002962703512000" y1="148.128292695057920000" x2="36.716062809934989000" y2="146.314149447728030000" stroke="orange" stroke-width="5"/>
<line x1="36.716062809934989000" y1="146.314149447728030000" x2="32.708086147234248000" y2="143.085492955253240000" stroke="red" stroke-width="5"/>
<line x1="32.708086147234248000" y1="143.085492955253240000" x2="28.790528327670820000" y2="139.991861688653930000" stroke="red" stroke-width="5"/>
<line x1="28.790528327670820000" y1="139.991861688653930000" x2="24.517540648191076000" y2="138.591172978587450000" stroke="orange" stroke-width="5"/>
<line x1="24.517540648191076000" y1="138.591172978587450000" x2="20.356172727451273000" y2="137.117442967224800000" stroke="orange" stroke-width="5"/>
<line x1="20.356172727451273000" y1="137.117442967224800000" x2="16.930123817782306000" y2="135.360590849560420000" stroke="orange" stroke-width="5"/>
<line x1="16.930123817782306000" y1="135.360590849560420000" x2="13.552220045037755000" y2="133.577010135645450000" stroke="orange" stroke-width="5"/>
<line x1="13.552220045037755000" y1="133.577010135645450000" x2="11.242433951377265000" y2="132.216953917244150000" stroke="orange" stroke-width="5"/>
<line x1="11.242433951377265000" y1="132.216953917244150000" x2="8.372581382567755500" y2="129.643991198922690000" stroke="orange" stroke-width="5"/>
<line x1="8.372581382567755500" y1="129.643991198922690000" x2="5.755624779786629100" y2="127.469789950129270000" stroke="orange" stroke-width="5"/>
<line x1="5.755624779786629100" y1="127.469789950129270000" x2="2.857984880313637200" y2="124.479804678398300000" stroke="orange" stroke-width="5"/>
<line x1="2.857984880313637200" y1="124.479804678398300000" x2="-0.831182744110410710" y2="121.171252238727730000" stroke="orange" stroke-width="5"/>
</svg><svg height="170" width="85" version="1.1" xmlns="http://www.w3.org/2000/svg">
<line x1="25.195257533506396000" y1="0.010130465529660258" x2="25.985566265121285000" y2="0.424822422036333140" stroke="orange" stroke-width="5"/>
<line x1="25.195257533506396000" y1="0.010130465529660258" x2="25.985566265121285000" y2="0.424822422036333140" stroke="orange" stroke-width="5"/>
<line x1="25.985566265121285000" y1="0.424822422036333140" x2="27.607866599734578000" y2="1.714276897036741200" stroke="orange" stroke-width="5"/>
<line x1="27.607866599734578000" y1="1.714276897036741200" x2="29.212404025002428000" y2="2.993149746974538900" stroke="orange" stroke-width="5"/>
<line x1="29.212404025002428000" y1="2.993149746974538900" x2="30.150458839890909000" y2="4.845155928016984200" stroke="orange" stroke-width="5"/>
<line x1="30.150458839890909000" y1="4.845155928016984200" x2="30.578511832354799000" y2="6.807037635572983800" stroke="orange" stroke-width="5"/>
<line x1="30.578511832354799000" y1="6.807037635572983800" x2="32.604661044541039000" y2="7.186518353123583200" stroke="orange" stroke-width="5"/>
<line x1="32.604661044541039000" y1="7.186518353123583200" x2="34.603564339201277000" y2="7.562221717694689500" stroke="yellow" stroke-width="5"/>
<line x1="34.603564339201277000" y1="7.562221717694689500" x2="36.383756637964780000" y2="7.957963720015595900" stroke="yellow" stroke-width="5"/>
<line x1="36.383756637964780000" y1="7.957963720015595900" x2="38.155059617521431000" y2="7.850398436756020000" stroke="orange" stroke-width="5"/>
<line x1="38.155059617521431000" y1="7.850398436756020000" x2="39.822847898710620000" y2="8.651048835626634000" stroke="orange" stroke-width="5"/>
<line x1="39.822847898710620000" y1="8.651048835626634000" x2="41.592367256554525000" y2="9.506557531166610200" stroke="orange" stroke-width="5"/>
<line x1="41.592367256554525000" y1="9.506557531166610200" x2="43.043890760276540000" y2="10.942701616431513000" stroke="orange" stroke-width="5"/>
<line x1="43.043890760276540000" y1="10.942701616431513000" x2="44.153538081657082000" y2="11.615732543076536000" stroke="orange" stroke-width="5"/>
<line x1="44.153538081657082000" y1="11.615732543076536000" x2="45.277041843828549000" y2="12.150007219643914000" stroke="orange" stroke-width="5"/>
<line x1="45.277041843828549000" y1="12.150007219643914000" x2="46.402561986480727000" y2="12.750906144871051000" stroke="orange" stroke-width="5"/>
<line x1="46.402561986480727000" y1="12.750906144871051000" x2="47.757060210941411000" y2="14.135216633359425000" stroke="orange" stroke-width="5"/>
<line x1="47.757060210941411000" y1="14.135216633359425000" x2="49.104783384062813000" y2="15.666449874524309000" stroke="red" stroke-width="5"/>
<line x1="49.104783384062813000" y1="15.666449874524309000" x2="49.448712038564679000" y2="17.826140004179457000" stroke="red" stroke-width="5"/>
<line x1="49.448712038564679000" y1="17.826140004179457000" x2="49.231819227567442000" y2="20.210022315245634000" stroke="red" stroke-width="5"/>
<line x1="49.231819227567442000" y1="20.210022315245634000" x2="48.768824784632557000" y2="22.856891980565376000" stroke="red" stroke-width="5"/>
<line x1="48.768824784632557000" y1="22.856891980565376000" x2="48.865040650270963000" y2="25.767469392189994000" stroke="red" stroke-width="5"/>
<line x1="48.865040650270963000" y1="25.767469392189994000" x2="48.773248948945209000" y2="28.346019227708190000" stroke="orange" stroke-width="5"/>
<line x1="48.773248948945209000" y1="28.346019227708190000" x2="47.358706880704538000" y2="31.548734051767742000" stroke="orange" stroke-width="5"/>
<line x1="47.358706880704538000" y1="31.548734051767742000" x2="45.842325614635030000" y2="35.437940732975363000" stroke="orange" stroke-width="5"/>
<line x1="45.842325614635030000" y1="35.437940732975363000" x2="44.318563009818760000" y2="39.350188328286208000" stroke="yellow" stroke-width="5"/>
<line x1="44.318563009818760000" y1="39.350188328286208000" x2="43.104787768207437000" y2="42.917787448917039000" stroke="yellow" stroke-width="5"/>
<line x1="43.104787768207437000" y1="42.917787448917039000" x2="41.567782499954106000" y2="45.982086091349210000" stroke="blue" stroke-width="5"/>
<line x1="41.567782499954106000" y1="45.982086091349210000" x2="39.562950382140244000" y2="48.760542961880439000" stroke="blue" stroke-width="5"/>
<line x1="39.562950382140244000" y1="48.760542961880439000" x2="38.076579056510738000" y2="51.411735436032885000" stroke="blue" stroke-width="5"/>
<line x1="38.076579056510738000" y1="51.411735436032885000" x2="37.437962338925317000" y2="54.239627019674920000" stroke="blue" stroke-width="5"/>
<line x1="37.437962338925317000" y1="54.239627019674920000" x2="37.258101376608941000" y2="57.240646144142140000" stroke="yellow" stroke-width="5"/>
<line x1="37.258101376608941000" y1="57.240646144142140000" x2="36.520869671548283000" y2="60.123049940063623000" stroke="yellow" stroke-width="5"/>
<line x1="36.520869671548283000" y1="60.123049940063623000" x2="36.380701989219986000" y2="62.739405220300014000" stroke="yellow" stroke-width="5"/>
<line x1="36.380701989219986000" y1="62.739405220300014000" x2="37.225271101592710000" y2="65.511787675862166000" stroke="yellow" stroke-width="5"/>
<line x1="37.225271101592710000" y1="65.511787675862166000" x2="38.065497982773635000" y2="68.424100816692416000" stroke="orange" stroke-width="5"/>
<line x1="38.065497982773635000" y1="68.424100816692416000" x2="38.721245584910740000" y2="72.388027248102418000" stroke="orange" stroke-width="5"/>
<line x1="38.721245584910740000" y1="72.388027248102418000" x2="38.963728114528557000" y2="77.275460641277505000" stroke="orange" stroke-width="5"/>
<line x1="38.963728114528557000" y1="77.275460641277505000" x2="39.290513338898869000" y2="81.777323301080429000" stroke="orange" stroke-width="5"/>
<line x1="39.290513338898869000" y1="81.777323301080429000" x2="39.501506843459950000" y2="86.102452730713082000" stroke="orange" stroke-width="5"/>
<line x1="39.501506843459950000" y1="86.102452730713082000" x2="40.323108097048745000" y2="91.311128209552265000" stroke="orange" stroke-width="5"/>
<line x1="40.323108097048745000" y1="91.311128209552265000" x2="41.503454562025311000" y2="94.726034001964052000" stroke="orange" stroke-width="5"/>
<line x1="41.503454562025311000" y1="94.726034001964052000" x2="42.860041246232647000" y2="97.951580285026324000" stroke="orange" stroke-width="5"/>
<line x1="42.860041246232647000" y1="97.951580285026324000" x2="44.393132485777485000" y2="101.281541224824660000" stroke="orange" stroke-width="5"/>
<line x1="44.393132485777485000" y1="101.281541224824660000" x2="45.970796551484874000" y2="104.871625141552610000" stroke="orange" stroke-width="5"/>
<line x1="45.970796551484874000" y1="104.871625141552610000" x2="47.076664879847101000" y2="108.280475452025560000" stroke="orange" stroke-width="5"/>
<line x1="47.076664879847101000" y1="108.280475452025560000" x2="49.258252318491643000" y2="110.758260644730970000" stroke="orange" stroke-width="5"/>
<line x1="49.258252318491643000" y1="110.758260644730970000" x2="51.315349582291802000" y2="112.715459594618450000" stroke="orange" stroke-width="5"/>
<line x1="51.315349582291802000" y1="112.715459594618450000" x2="53.295172086292951000" y2="114.553385898696580000" stroke="orange" stroke-width="5"/>
<line x1="53.295172086292951000" y1="114.553385898696580000" x2="55.427100595533844000" y2="117.460265131127610000" stroke="orange" stroke-width="5"/>
<line x1="55.427100595533844000" y1="117.460265131127610000" x2="56.938070114322826000" y2="120.149844694636190000" stroke="orange" stroke-width="5"/>
<line x1="56.938070114322826000" y1="120.149844694636190000" x2="59.693182044297323000" y2="123.975244769280750000" stroke="orange" stroke-width="5"/>
<line x1="59.693182044297323000" y1="123.975244769280750000" x2="62.694245571128903000" y2="127.736939353314900000" stroke="orange" stroke-width="5"/>
<line x1="62.694245571128903000" y1="127.736939353314900000" x2="65.106740562697780000" y2="132.276926573564340000" stroke="orange" stroke-width="5"/>
<line x1="65.106740562697780000" y1="132.276926573564340000" x2="67.232025971859656000" y2="136.536578754835230000" stroke="orange" stroke-width="5"/>
<line x1="67.232025971859656000" y1="136.536578754835230000" x2="69.106539184879352000" y2="140.039239555108050000" stroke="orange" stroke-width="5"/>
<line x1="69.106539184879352000" y1="140.039239555108050000" x2="72.032719273654990000" y2="144.188616978787880000" stroke="orange" stroke-width="5"/>
<line x1="72.032719273654990000" y1="144.188616978787880000" x2="74.690538524072480000" y2="146.712079035135190000" stroke="orange" stroke-width="5"/>
<line x1="74.690538524072480000" y1="146.712079035135190000" x2="76.969754679649981000" y2="149.255566634157930000" stroke="orange" stroke-width="5"/>
<line x1="76.969754679649981000" y1="149.255566634157930000" x2="78.693452461441296000" y2="151.189022104513870000" stroke="orange" stroke-width="5"/>
<line x1="78.693452461441296000" y1="151.189022104513870000" x2="78.959618940618526000" y2="152.960261526845330000" stroke="orange" stroke-width="5"/>
<line x1="78.959618940618526000" y1="152.960261526845330000" x2="79.438743710345136000" y2="154.223229788392330000" stroke="orange" stroke-width="5"/>
<line x1="79.438743710345136000" y1="154.223229788392330000" x2="80.009782860452560000" y2="155.201752372887030000" stroke="orange" stroke-width="5"/>
<line x1="80.009782860452560000" y1="155.201752372887030000" x2="79.965824607751443000" y2="156.144028366509560000" stroke="orange" stroke-width="5"/>
<line x1="79.965824607751443000" y1="156.144028366509560000" x2="79.747735368285220000" y2="157.407275967258410000" stroke="orange" stroke-width="5"/>
<line x1="79.747735368285220000" y1="157.407275967258410000" x2="80.034836713612009000" y2="159.513956076402370000" stroke="orange" stroke-width="5"/>
<line x1="80.034836713612009000" y1="159.513956076402370000" x2="79.619446152446329000" y2="160.142343089707680000" stroke="orange" stroke-width="5"/>
<line x1="79.619446152446329000" y1="160.142343089707680000" x2="79.079133768523292000" y2="160.846407486931300000" stroke="orange" stroke-width="5"/>
<line x1="79.079133768523292000" y1="160.846407486931300000" x2="78.806533974796992000" y2="160.610558329784850000" stroke="red" stroke-width="5"/>
<line x1="78.806533974796992000" y1="160.610558329784850000" x2="79.853829295218361000" y2="159.491888921784810000" stroke="red" stroke-width="5"/>
<line x1="79.853829295218361000" y1="159.491888921784810000" x2="80.858997301973588000" y2="158.381819935414800000" stroke="red" stroke-width="5"/>
<line x1="80.858997301973588000" y1="158.381819935414800000" x2="81.192007953342909000" y2="157.744377234973430000" stroke="orange" stroke-width="5"/>
<line x1="81.192007953342909000" y1="157.744377234973430000" x2="80.756612254641581000" y2="157.975513944690650000" stroke="orange" stroke-width="5"/>
<line x1="80.756612254641581000" y1="157.975513944690650000" x2="80.163179331185404000" y2="158.077185625337390000" stroke="orange" stroke-width="5"/>
<line x1="80.163179331185404000" y1="158.077185625337390000" x2="77.980048031987764000" y2="157.387295738154880000" stroke="orange" stroke-width="5"/>
<line x1="77.980048031987764000" y1="157.387295738154880000" x2="75.659634714134995000" y2="156.201807156562670000" stroke="orange" stroke-width="5"/>
<line x1="75.659634714134995000" y1="156.201807156562670000" x2="73.397070221193829000" y2="155.039379133336890000" stroke="yellow" stroke-width="5"/>
<line x1="73.397070221193829000" y1="155.039379133336890000" x2="70.778829143483563000" y2="153.813195501598190000" stroke="yellow" stroke-width="5"/>
<line x1="70.778829143483563000" y1="153.813195501598190000" x2="69.633562511635176000" y2="153.769705018716590000" stroke="blue" stroke-width="5"/>
<line x1="69.633562511635176000" y1="153.769705018716590000" x2="68.161021519319490000" y2="153.546125995974050000" stroke="blue" stroke-width="5"/>
<line x1="68.161021519319490000" y1="153.546125995974050000" x2="65.726035852551703000" y2="152.834877049090520000" stroke="blue" stroke-width="5"/>
<line x1="65.726035852551703000" y1="152.834877049090520000" x2="63.492338450953781000" y2="152.383828570000990000" stroke="blue" stroke-width="5"/>
<line x1="63.492338450953781000" y1="152.383828570000990000" x2="61.547987742432561000" y2="152.008362869689250000" stroke="blue" stroke-width="5"/>
<line x1="61.547987742432561000" y1="152.008362869689250000" x2="57.894280583206644000" y2="151.072899543874460000" stroke="blue" stroke-width="5"/>
<line x1="57.894280583206644000" y1="151.072899543874460000" x2="54.092080782935341000" y2="150.340340018157950000" stroke="yellow" stroke-width="5"/>
<line x1="54.092080782935341000" y1="150.340340018157950000" x2="49.352556496476268000" y2="149.933829222373650000" stroke="yellow" stroke-width="5"/>
<line x1="49.352556496476268000" y1="149.933829222373650000" x2="44.362020690167100000" y2="148.908148207535360000" stroke="orange" stroke-width="5"/>
<line x1="44.362020690167100000" y1="148.908148207535360000" x2="41.070002962703512000" y2="148.128292695057920000" stroke="orange" stroke-width="5"/>
<line x1="41.070002962703512000" y1="148.128292695057920000" x2="36.716062809934989000" y2="146.314149447728030000" stroke="orange" stroke-width="5"/>
<line x1="36.716062809934989000" y1="146.314149447728030000" x2="32.708086147234248000" y2="143.085492955253240000" stroke="red" stroke-width="5"/>
<line x1="32.708086147234248000" y1="143.085492955253240000" x2="28.790528327670820000" y2="139.991861688653930000" stroke="red" stroke-width="5"/>
<line x1="28.790528327670820000" y1="139.991861688653930000" x2="24.517540648191076000" y2="138.591172978587450000" stroke="orange" stroke-width="5"/>
<line x1="24.517540648191076000" y1="138.591172978587450000" x2="20.356172727451273000" y2="137.117442967224800000" stroke="orange" stroke-width="5"/>
<line x1="20.356172727451273000" y1="137.117442967224800000" x2="16.930123817782306000" y2="135.360590849560420000" stroke="orange" stroke-width="5"/>
<line x1="16.930123817782306000" y1="135.360590849560420000" x2="13.552220045037755000" y2="133.577010135645450000" stroke="orange" stroke-width="5"/>
<line x1="13.552220045037755000" y1="133.577010135645450000" x2="11.242433951377265000" y2="132.216953917244150000" stroke="orange" stroke-width="5"/>
<line x1="11.242433951377265000" y1="132.216953917244150000" x2="8.372581382567755500" y2="129.643991198922690000" stroke="orange" stroke-width="5"/>
<line x1="8.372581382567755500" y1="129.643991198922690000" x2="5.755624779786629100" y2="127.469789950129270000" stroke="orange" stroke-width="5"/>
<line x1="5.755624779786629100" y1="127.469789950129270000" x2="2.857984880313637200" y2="124.479804678398300000" stroke="orange" stroke-width="5"/>
<line x1="2.857984880313637200" y1="124.479804678398300000" x2="-0.831182744110410710" y2="121.171252238727730000" stroke="orange" stroke-width="5"/>
</svg><svg height="170" width="85" version="1.1" xmlns="http://www.w3.org/2000/svg">
<line x1="25.195257533506396000" y1="0.010130465529660258" x2="25.985566265121285000" y2="0.424822422036333140" stroke="orange" stroke-width="5"/>
<line x1="25.195257533506396000" y1="0.010130465529660258" x2="25.985566265121285000" y2="0.424822422036333140" stroke="orange" stroke-width="5"/>
<line x1="25.985566265121285000" y1="0.424822422036333140" x2="27.607866599734578000" y2="1.714276897036741200" stroke="orange" stroke-width="5"/>
<line x1="27.607866599734578000" y1="1.714276897036741200" x2="29.212404025002428000" y2="2.993149746974538900" stroke="orange" stroke-width="5"/>
<line x1="29.212404025002428000" y1="2.993149746974538900" x2="30.150458839890909000" y2="4.845155928016984200" stroke="orange" stroke-width="5"/>
<line x1="30.150458839890909000" y1="4.845155928016984200" x2="30.578511832354799000" y2="6.807037635572983800" stroke="orange" stroke-width="5"/>
<line x1="30.578511832354799000" y1="6.807037635572983800" x2="32.604661044541039000" y2="7.186518353123583200" stroke="orange" stroke-width="5"/>
<line x1="32.604661044541039000" y1="7.186518353123583200" x2="34.603564339201277000" y2="7.562221717694689500" stroke="yellow" stroke-width="5"/>
<line x1="34.603564339201277000" y1="7.562221717694689500" x2="36.383756637964780000" y2="7.957963720015595900" stroke="yellow" stroke-width="5"/>
<line x1="36.383756637964780000" y1="7.957963720015595900" x2="38.155059617521431000" y2="7.850398436756020000" stroke="orange" stroke-width="5"/>
<line x1="38.155059617521431000" y1="7.850398436756020000" x2="39.822847898710620000" y2="8.651048835626634000" stroke="orange" stroke-width="5"/>
<line x1="39.822847898710620000" y1="8.651048835626634000" x2="41.592367256554525000" y2="9.506557531166610200" stroke="orange" stroke-width="5"/>
<line x1="41.592367256554525000" y1="9.506557531166610200" x2="43.043890760276540000" y2="10.942701616431513000" stroke="orange" stroke-width="5"/>
<line x1="43.043890760276540000" y1="10.942701616431513000" x2="44.153538081657082000" y2="11.615732543076536000" stroke="orange" stroke-width="5"/>
<line x1="44.153538081657082000" y1="11.615732543076536000" x2="45.277041843828549000" y2="12.150007219643914000" stroke="orange" stroke-width="5"/>
<line x1="45.277041843828549000" y1="12.150007219643914000" x2="46.402561986480727000" y2="12.750906144871051000" stroke="orange" stroke-width="5"/>
<line x1="46.402561986480727000" y1="12.750906144871051000" x2="47.757060210941411000" y2="14.135216633359425000" stroke="orange" stroke-width="5"/>
<line x1="47.757060210941411000" y1="14.135216633359425000" x2="49.104783384062813000" y2="15.666449874524309000" stroke="red" stroke-width="5"/>
<line x1="49.104783384062813000" y1="15.666449874524309000" x2="49.448712038564679000" y2="17.826140004179457000" stroke="red" stroke-width="5"/>
<line x1="49.448712038564679000" y1="17.826140004179457000" x2="49.231819227567442000" y2="20.210022315245634000" stroke="red" stroke-width="5"/>
<line x1="49.231819227567442000" y1="20.210022315245634000" x2="48.768824784632557000" y2="22.856891980565376000" stroke="red" stroke-width="5"/>
<line x1="48.768824784632557000" y1="22.856891980565376000" x2="48.865040650270963000" y2="25.767469392189994000" stroke="red" stroke-width="5"/>
<line x1="48.865040650270963000" y1="25.767469392189994000" x2="48.773248948945209000" y2="28.346019227708190000" stroke="orange" stroke-width="5"/>
<line x1="48.773248948945209000" y1="28.346019227708190000" x2="47.358706880704538000" y2="31.548734051767742000" stroke="orange" stroke-width="5"/>
<line x1="47.358706880704538000" y1="31.548734051767742000" x2="45.842325614635030000" y2="35.437940732975363000" stroke="orange" stroke-width="5"/>
<line x1="45.842325614635030000" y1="35.437940732975363000" x2="44.318563009818760000" y2="39.350188328286208000" stroke="yellow" stroke-width="5"/>
<line x1="44.318563009818760000" y1="39.350188328286208000" x2="43.104787768207437000" y2="42.917787448917039000" stroke="yellow" stroke-width="5"/>
<line x1="43.104787768207437000" y1="42.917787448917039000" x2="41.567782499954106000" y2="45.982086091349210000" stroke="blue" stroke-width="5"/>
<line x1="41.567782499954106000" y1="45.982086091349210000" x2="39.562950382140244000" y2="48.760542961880439000" stroke="blue" stroke-width="5"/>
<line x1="39.562950382140244000" y1="48.760542961880439000" x2="38.076579056510738000" y2="51.411735436032885000" stroke="blue" stroke-width="5"/>
<line x1="38.076579056510738000" y1="51.411735436032885000" x2="37.437962338925317000" y2="54.239627019674920000" stroke="blue" stroke-width="5"/>
<line x1="37.437962338925317000" y1="54.239627019674920000" x2="37.258101376608941000" y2="57.240646144142140000" stroke="yellow" stroke-width="5"/>
<line x1="37.258101376608941000" y1="57.240646144142140000" x2="36.520869671548283000" y2="60.123049940063623000" stroke="yellow" stroke-width="5"/>
<line x1="36.520869671548283000" y1="60.123049940063623000" x2="36.380701989219986000" y2="62.739405220300014000" stroke="yellow" stroke-width="5"/>
<line x1="36.380701989219986000" y1="62.739405220300014000" x2="37.225271101592710000" y2="65.511787675862166000" stroke="yellow" stroke-width="5"/>
<line x1="37.225271101592710000" y1="65.511787675862166000" x2="38.065497982773635000" y2="68.424100816692416000" stroke="orange" stroke-width="5"/>
<line x1="38.065497982773635000" y1="68.424100816692416000" x2="38.721245584910740000" y2="72.388027248102418000" stroke="orange" stroke-width="5"/>
<line x1="38.721245584910740000" y1="72.388027248102418000" x2="38.963728114528557000" y2="77.275460641277505000" stroke="orange" stroke-width="5"/>
<line x1="38.963728114528557000" y1="77.275460641277505000" x2="39.290513338898869000" y2="81.777323301080429000" stroke="orange" stroke-width="5"/>
<line x1="39.290513338898869000" y1="81.777323301080429000" x2="39.501506843459950000" y2="86.102452730713082000" stroke="orange" stroke-width="5"/>
<line x1="39.501506843459950000" y1="86.102452730713082000" x2="40.323108097048745000" y2="91.311128209552265000" stroke="orange" stroke-width="5"/>
<line x1="40.323108097048745000" y1="91.311128209552265000" x2="41.503454562025311000" y2="94.726034001964052000" stroke="orange" stroke-width="5"/>
<line x1="41.503454562025311000" y1="94.726034001964052000" x2="42.860041246232647000" y2="97.951580285026324000" stroke="orange" stroke-width="5"/>
<line x1="42.860041246232647000" y1="97.951580285026324000" x2="44.393132485777485000" y2="101.281541224824660000" stroke="orange" stroke-width="5"/>
<line x1="44.393132485777485000" y1="101.281541224824660000" x2="45.970796551484874000" y2="104.871625141552610000" stroke="orange" stroke-width="5"/>
<line x1="45.970796551484874000" y1="104.871625141552610000" x2="47.076664879847101000" y2="108.280475452025560000" stroke="orange" stroke-width="5"/>
<line x1="47.076664879847101000" y1="108.280475452025560000" x2="49.258252318491643000" y2="110.758260644730970000" stroke="orange" stroke-width="5"/>
<line x1="49.258252318491643000" y1="110.758260644730970000" x2="51.315349582291802000" y2="112.715459594618450000" stroke="orange" stroke-width="5"/>
<line x1="51.315349582291802000" y1="112.715459594618450000" x2="53.295172086292951000" y2="114.553385898696580000" stroke="orange" stroke-width="5"/>
<line x1="53.295172086292951000" y1="114.553385898696580000" x2="55.427100595533844000" y2="117.460265131127610000" stroke="orange" stroke-width="5"/>
<line x1="55.427100595533844000" y1="117.460265131127610000" x2="56.938070114322826000" y2="120.149844694636190000" stroke="orange" stroke-width="5"/>
<line x1="56.938070114322826000" y1="120.149844694636190000" x2="59.693182044297323000" y2="123.975244769280750000" stroke="orange" stroke-width="5"/>
<line x1="59.693182044297323000" y1="123.975244769280750000" x2="62.694245571128903000" y2="127.736939353314900000" stroke="orange" stroke-width="5"/>
<line x1="62.694245571128903000" y1="127.736939353314900000" x2="65.106740562697780000" y2="132.276926573564340000" stroke="orange" stroke-width="5"/>
<line x1="65.106740562697780000" y1="132.276926573564340000" x2="67.232025971859656000" y2="136.536578754835230000" stroke="orange" stroke-width="5"/>
<line x1="67.232025971859656000" y1="136.536578754835230000" x2="69.106539184879352000" y2="140.039239555108050000" stroke="orange" stroke-width="5"/>
<line x1="69.106539184879352000" y1="140.039239555108050000" x2="72.032719273654990000" y2="144.188616978787880000" stroke="orange" stroke-width="5"/>
<line x1="72.032719273654990000" y1="144.188616978787880000" x2="74.690538524072480000" y2="146.712079035135190000" stroke="orange" stroke-width="5"/>
<line x1="74.690538524072480000" y1="146.712079035135190000" x2="76.969754679649981000" y2="149.255566634157930000" stroke="orange" stroke-width="5"/>
<line x1="76.969754679649981000" y1="149.255566634157930000" x2="78.693452461441296000" y2="151.189022104513870000" stroke="orange" stroke-width="5"/>
<line x1="78.693452461441296000" y1="151.189022104513870000" x2="78.959618940618526000" y2="152.960261526845330000" stroke="orange" stroke-width="5"/>
<line x1="78.959618940618526000" y1="152.960261526845330000" x2="79.438743710345136000" y2="154.223229788392330000" stroke="orange" stroke-width="5"/>
<line x1="79.438743710345136000" y1="154.223229788392330000" x2="80.009782860452560000" y2="155.201752372887030000" stroke="orange" stroke-width="5"/>
<line x1="80.009782860452560000" y1="155.201752372887030000" x2="79.965824607751443000" y2="156.144028366509560000" stroke="orange" stroke-width="5"/>
<line x1="79.965824607751443000" y1="156.144028366509560000" x2="79.747735368285220000" y2="157.407275967258410000" stroke="orange" stroke-width="5"/>
<line x1="79.747735368285220000" y1="157.407275967258410000" x2="80.034836713612009000" y2="159.513956076402370000" stroke="orange" stroke-width="5"/>
<line x1="80.034836713612009000" y1="159.513956076402370000" x2="79.619446152446329000" y2="160.142343089707680000" stroke="orange" stroke-width="5"/>
<line x1="79.619446152446329000" y1="160.142343089707680000" x2="79.079133768523292000" y2="160.846407486931300000" stroke="orange" stroke-width="5"/>
<line x1="79.079133768523292000" y1="160.846407486931300000" x2="78.806533974796992000" y2="160.610558329784850000" stroke="red" stroke-width="5"/>
<line x1="78.806533974796992000" y1="160.610558329784850000" x2="79.853829295218361000" y2="159.491888921784810000" stroke="red" stroke-width="5"/>
<line x1="79.853829295218361000" y1="159.491888921784810000" x2="80.858997301973588000" y2="158.381819935414800000" stroke="red" stroke-width="5"/>
<line x1="80.858997301973588000" y1="158.381819935414800000" x2="81.192007953342909000" y2="157.744377234973430000" stroke="orange" stroke-width="5"/>
<line x1="81.192007953342909000" y1="157.744377234973430000" x2="80.756612254641581000" y2="157.975513944690650000" stroke="orange" stroke-width="5"/>
<line x1="80.756612254641581000" y1="157.975513944690650000" x2="80.163179331185404000" y2="158.077185625337390000" stroke="orange" stroke-width="5"/>
<line x1="80.163179331185404000" y1="158.077185625337390000" x2="77.980048031987764000" y2="157.387295738154880000" stroke="orange" stroke-width="5"/>
<line x1="77.980048031987764000" y1="157.387295738154880000" x2="75.659634714134995000" y2="156.201807156562670000" stroke="orange" stroke-width="5"/>
<line x1="75.659634714134995000" y1="156.201807156562670000" x2="73.397070221193829000" y2="155.039379133336890000" stroke="yellow" stroke-width="5"/>
<line x1="73.397070221193829000" y1="155.039379133336890000" x2="70.778829143483563000" y2="153.813195501598190000" stroke="yellow" stroke-width="5"/>
<line x1="70.778829143483563000" y1="153.813195501598190000" x2="69.633562511635176000" y2="153.769705018716590000" stroke="blue" stroke-width="5"/>
<line x1="69.633562511635176000" y1="153.769705018716590000" x2="68.161021519319490000" y2="153.546125995974050000" stroke="blue" stroke-width="5"/>
<line x1="68.161021519319490000" y1="153.546125995974050000" x2="65.726035852551703000" y2="152.834877049090520000" stroke="blue" stroke-width="5"/>
<line x1="65.726035852551703000" y1="152.834877049090520000" x2="63.492338450953781000" y2="152.383828570000990000" stroke="blue" stroke-width="5"/>
<line x1="63.492338450953781000" y1="152.383828570000990000" x2="61.547987742432561000" y2="152.008362869689250000" stroke="blue" stroke-width="5"/>
<line x1="61.547987742432561000" y1="152.008362869689250000" x2="57.894280583206644000" y2="151.072899543874460000" stroke="blue" stroke-width="5"/>
<line x1="57.894280583206644000" y1="151.072899543874460000" x2="54.092080782935341000" y2="150.340340018157950000" stroke="yellow" stroke-width="5"/>
<line x1="54.092080782935341000" y1="150.340340018157950000" x2="49.352556496476268000" y2="149.933829222373650000" stroke="yellow" stroke-width="5"/>
<line x1="49.352556496476268000" y1="149.933829222373650000" x2="44.362020690167100000" y2="148.908148207535360000" stroke="orange" stroke-width="5"/>
<line x1="44.362020690167100000" y1="148.908148207535360000" x2="41.070002962703512000" y2="148.128292695057920000" stroke="orange" stroke-width="5"/>
<line x1="41.070002962703512000" y1="148.128292695057920000" x2="36.716062809934989000" y2="146.314149447728030000" stroke="orange" stroke-width="5"/>
<line x1="36.716062809934989000" y1="146.314149447728030000" x2="32.708086147234248000" y2="143.085492955253240000" stroke="red" stroke-width="5"/>
<line x1="32.708086147234248000" y1="143.085492955253240000" x2="28.790528327670820000" y2="139.991861688653930000" stroke="red" stroke-width="5"/>
<line x1="28.790528327670820000" y1="139.991861688653930000" x2="24.517540648191076000" y2="138.591172978587450000" stroke="orange" stroke-width="5"/>
<line x1="24.517540648191076000" y1="138.591172978587450000" x2="20.356172727451273000" y2="137.117442967224800000" stroke="orange" stroke-width="5"/>
<line x1="20.356172727451273000" y1="137.117442967224800000" x2="16.930123817782306000" y2="135.360590849560420000" stroke="orange" stroke-width="5"/>
<line x1="16.930123817782306000" y1="135.360590849560420000" x2="13.552220045037755000" y2="133.577010135645450000" stroke="orange" stroke-width="5"/>
<line x1="13.552220045037755000" y1="133.577010135645450000" x2="11.242433951377265000" y2="132.216953917244150000" stroke="orange" stroke-width="5"/>
<line x1="11.242433951377265000" y1="132.216953917244150000" x2="8.372581382567755500" y2="129.643991198922690000" stroke="orange" stroke-width="5"/>
<line x1="8.372581382567755500" y1="129.643991198922690000" x2="5.755624779786629100" y2="127.469789950129270000" stroke="orange" stroke-width="5"/>
<line x1="5.755624779786629100" y1="127.469789950129270000" x2="2.857984880313637200" y2="124.479804678398300000" stroke="orange" stroke-width="5"/>
<line x1="2.857984880313637200" y1="124.479804678398300000" x2="-0.831182744110410710" y2="121.171252238727730000" stroke="orange" stroke-width="5"/>
</svg><svg height="170" width="85" version="1.1" xmlns="http://www.w3.org/2000/svg">
<line x1="25.195257533506396000" y1="0.010130465529660258" x2="25.985566265121285000" y2="0.424822422036333140" stroke="orange" stroke-width="5"/>
<line x1="25.195257533506396000" y1="0.010130465529660258" x2="25.985566265121285000" y2="0.424822422036333140" stroke="orange" stroke-width="5"/>
<line x1="25.985566265121285000" y1="0.424822422036333140" x2="27.607866599734578000" y2="1.714276897036741200" stroke="orange" stroke-width="5"/>
<line x1="27.607866599734578000" y1="1.714276897036741200" x2="29.212404025002428000" y2="2.993149746974538900" stroke="orange" stroke-width="5"/>
<line x1="29.212404025002428000" y1="2.993149746974538900" x2="30.150458839890909000" y2="4.845155928016984200" stroke="orange" stroke-width="5"/>
<line x1="30.150458839890909000" y1="4.845155928016984200" x2="30.578511832354799000" y2="6.807037635572983800" stroke="orange" stroke-width="5"/>
<line x1="30.578511832354799000" y1="6.807037635572983800" x2="32.604661044541039000" y2="7.186518353123583200" stroke="orange" stroke-width="5"/>
<line x1="32.604661044541039000" y1="7.186518353123583200" x2="34.603564339201277000" y2="7.562221717694689500" stroke="yellow" stroke-width="5"/>
<line x1="34.603564339201277000" y1="7.562221717694689500" x2="36.383756637964780000" y2="7.957963720015595900" stroke="yellow" stroke-width="5"/>
<line x1="36.383756637964780000" y1="7.957963720015595900" x2="38.155059617521431000" y2="7.850398436756020000" stroke="orange" stroke-width="5"/>
<line x1="38.155059617521431000" y1="7.850398436756020000" x2="39.822847898710620000" y2="8.651048835626634000" stroke="orange" stroke-width="5"/>
<line x1="39.822847898710620000" y1="8.651048835626634000" x2="41.592367256554525000" y2="9.506557531166610200" stroke="orange" stroke-width="5"/>
<line x1="41.592367256554525000" y1="9.506557531166610200" x2="43.043890760276540000" y2="10.942701616431513000" stroke="orange" stroke-width="5"/>
<line x1="43.043890760276540000" y1="10.942701616431513000" x2="44.153538081657082000" y2="11.615732543076536000" stroke="orange" stroke-width="5"/>
<line x1="44.153538081657082000" y1="11.615732543076536000" x2="45.277041843828549000" y2="12.150007219643914000" stroke="orange" stroke-width="5"/>
<line x1="45.277041843828549000" y1="12.150007219643914000" x2="46.402561986480727000" y2="12.750906144871051000" stroke="orange" stroke-width="5"/>
<line x1="46.402561986480727000" y1="12.750906144871051000" x2="47.757060210941411000" y2="14.135216633359425000" stroke="orange" stroke-width="5"/>
<line x1="47.757060210941411000" y1="14.135216633359425000" x2="49.104783384062813000" y2="15.666449874524309000" stroke="red" stroke-width="5"/>
<line x1="49.104783384062813000" y1="15.666449874524309000" x2="49.448712038564679000" y2="17.826140004179457000" stroke="red" stroke-width="5"/>
<line x1="49.448712038564679000" y1="17.826140004179457000" x2="49.231819227567442000" y2="20.210022315245634000" stroke="red" stroke-width="5"/>
<line x1="49.231819227567442000" y1="20.210022315245634000" x2="48.768824784632557000" y2="22.856891980565376000" stroke="red" stroke-width="5"/>
<line x1="48.768824784632557000" y1="22.856891980565376000" x2="48.865040650270963000" y2="25.767469392189994000" stroke="red" stroke-width="5"/>
<line x1="48.865040650270963000" y1="25.767469392189994000" x2="48.773248948945209000" y2="28.346019227708190000" stroke="orange" stroke-width="5"/>
<line x1="48.773248948945209000" y1="28.346019227708190000" x2="47.358706880704538000" y2="31.548734051767742000" stroke="orange" stroke-width="5"/>
<line x1="47.358706880704538000" y1="31.548734051767742000" x2="45.842325614635030000" y2="35.437940732975363000" stroke="orange" stroke-width="5"/>
<line x1="45.842325614635030000" y1="35.437940732975363000" x2="44.318563009818760000" y2="39.350188328286208000" stroke="yellow" stroke-width="5"/>
<line x1="44.318563009818760000" y1="39.350188328286208000" x2="43.104787768207437000" y2="42.917787448917039000" stroke="yellow" stroke-width="5"/>
<line x1="43.104787768207437000" y1="42.917787448917039000" x2="41.567782499954106000" y2="45.982086091349210000" stroke="blue" stroke-width="5"/>
<line x1="41.567782499954106000" y1="45.982086091349210000" x2="39.562950382140244000" y2="48.760542961880439000" stroke="blue" stroke-width="5"/>
<line x1="39.562950382140244000" y1="48.760542961880439000" x2="38.076579056510738000" y2="51.411735436032885000" stroke="blue" stroke-width="5"/>
<line x1="38.076579056510738000" y1="51.411735436032885000" x2="37.437962338925317000" y2="54.239627019674920000" stroke="blue" stroke-width="5"/>
<line x1="37.437962338925317000" y1="54.239627019674920000" x2="37.258101376608941000" y2="57.240646144142140000" stroke="yellow" stroke-width="5"/>
<line x1="37.258101376608941000" y1="57.240646144142140000" x2="36.520869671548283000" y2="60.123049940063623000" stroke="yellow" stroke-width="5"/>
<line x1="36.520869671548283000" y1="60.123049940063623000" x2="36.380701989219986000" y2="62.739405220300014000" stroke="yellow" stroke-width="5"/>
<line x1="36.380701989219986000" y1="62.739405220300014000" x2="37.225271101592710000" y2="65.511787675862166000" stroke="yellow" stroke-width="5"/>
<line x1="37.225271101592710000" y1="65.511787675862166000" x2="38.065497982773635000" y2="68.424100816692416000" stroke="orange" stroke-width="5"/>
<line x1="38.065497982773635000" y1="68.424100816692416000" x2="38.721245584910740000" y2="72.388027248102418000" stroke="orange" stroke-width="5"/>
<line x1="38.721245584910740000" y1="72.388027248102418000" x2="38.963728114528557000" y2="77.275460641277505000" stroke="orange" stroke-width="5"/>
<line x1="38.963728114528557000" y1="77.275460641277505000" x2="39.290513338898869000" y2="81.777323301080429000" stroke="orange" stroke-width="5"/>
<line x1="39.290513338898869000" y1="81.777323301080429000" x2="39.501506843459950000" y2="86.102452730713082000" stroke="orange" stroke-width="5"/>
<line x1="39.501506843459950000" y1="86.102452730713082000" x2="40.323108097048745000" y2="91.311128209552265000" stroke="orange" stroke-width="5"/>
<line x1="40.323108097048745000" y1="91.311128209552265000" x2="41.503454562025311000" y2="94.726034001964052000" stroke="orange" stroke-width="5"/>
<line x1="41.503454562025311000" y1="94.726034001964052000" x2="42.860041246232647000" y2="97.951580285026324000" stroke="orange" stroke-width="5"/>
<line x1="42.860041246232647000" y1="97.951580285026324000" x2="44.393132485777485000" y2="101.281541224824660000" stroke="orange" stroke-width="5"/>
<line x1="44.393132485777485000" y1="101.281541224824660000" x2="45.970796551484874000" y2="104.871625141552610000" stroke="orange" stroke-width="5"/>
<line x1="45.970796551484874000" y1="104.871625141552610000" x2="47.076664879847101000" y2="108.280475452025560000" stroke="orange" stroke-width="5"/>
<line x1="47.076664879847101000" y1="108.280475452025560000" x2="49.258252318491643000" y2="110.758260644730970000" stroke="orange" stroke-width="5"/>
<line x1="49.258252318491643000" y1="110.758260644730970000" x2="51.315349582291802000" y2="112.715459594618450000" stroke="orange" stroke-width="5"/>
<line x1="51.315349582291802000" y1="112.715459594618450000" x2="53.295172086292951000" y2="114.553385898696580000" stroke="orange" stroke-width="5"/>
<line x1="53.295172086292951000" y1="114.553385898696580000" x2="55.427100595533844000" y2="117.460265131127610000" stroke="orange" stroke-width="5"/>
<line x1="55.427100595533844000" y1="117.460265131127610000" x2="56.938070114322826000" y2="120.149844694636190000" stroke="orange" stroke-width="5"/>
<line x1="56.938070114322826000" y1="120.149844694636190000" x2="59.693182044297323000" y2="123.975244769280750000" stroke="orange" stroke-width="5"/>
<line x1="59.693182044297323000" y1="123.975244769280750000" x2="62.694245571128903000" y2="127.736939353314900000" stroke="orange" stroke-width="5"/>
<line x1="62.694245571128903000" y1="127.736939353314900000" x2="65.106740562697780000" y2="132.276926573564340000" stroke="orange" stroke-width="5"/>
<line x1="65.106740562697780000" y1="132.276926573564340000" x2="67.232025971859656000" y2="136.536578754835230000" stroke="orange" stroke-width="5"/>
<line x1="67.232025971859656000" y1="136.536578754835230000" x2="69.106539184879352000" y2="140.039239555108050000" stroke="orange" stroke-width="5"/>
<line x1="69.106539184879352000" y1="140.039239555108050000" x2="72.032719273654990000" y2="144.188616978787880000" stroke="orange" stroke-width="5"/>
<line x1="72.032719273654990000" y1="144.188616978787880000" x2="74.690538524072480000" y2="146.712079035135190000" stroke="orange" stroke-width="5"/>
<line x1="74.690538524072480000" y1="146.712079035135190000" x2="76.969754679649981000" y2="149.255566634157930000" stroke="orange" stroke-width="5"/>
<line x1="76.969754679649981000" y1="149.255566634157930000" x2="78.693452461441296000" y2="151.189022104513870000" stroke="orange" stroke-width="5"/>
<line x1="78.693452461441296000" y1="151.189022104513870000" x2="78.959618940618526000" y2="152.960261526845330000" stroke="orange" stroke-width="5"/>
<line x1="78.959618940618526000" y1="152.960261526845330000" x2="79.438743710345136000" y2="154.223229788392330000" stroke="orange" stroke-width="5"/>
<line x1="79.438743710345136000" y1="154.223229788392330000" x2="80.009782860452560000" y2="155.201752372887030000" stroke="orange" stroke-width="5"/>
<line x1="80.009782860452560000" y1="155.201752372887030000" x2="79.965824607751443000" y2="156.144028366509560000" stroke="orange" stroke-width="5"/>
<line x1="79.965824607751443000" y1="156.144028366509560000" x2="79.747735368285220000" y2="157.407275967258410000" stroke="orange" stroke-width="5"/>
<line x1="79.747735368285220000" y1="157.407275967258410000" x2="80.034836713612009000" y2="159.513956076402370000" stroke="orange" stroke-width="5"/>
<line x1="80.034836713612009000" y1="159.513956076402370000" x2="79.619446152446329000" y2="160.142343089707680000" stroke="orange" stroke-width="5"/>
<line x1="79.619446152446329000" y1="160.142343089707680000" x2="79.079133768523292000" y2="160.846407486931300000" stroke="orange" stroke-width="5"/>
<line x1="79.079133768523292000" y1="160.846407486931300000" x2="78.806533974796992000" y2="160.610558329784850000" stroke="red" stroke-width="5"/>
<line x1="78.806533974796992000" y1="160.610558329784850000" x2="79.853829295218361000" y2="159.491888921784810000" stroke="red" stroke-width="5"/>
<line x1="79.853829295218361000" y1="159.491888921784810000" x2="80.858997301973588000" y2="158.381819935414800000" stroke="red" stroke-width="5"/>
<line x1="80.858997301973588000" y1="158.381819935414800000" x2="81.192007953342909000" y2="157.744377234973430000" stroke="orange" stroke-width="5"/>
<line x1="81.192007953342909000" y1="157.744377234973430000" x2="80.756612254641581000" y2="157.975513944690650000" stroke="orange" stroke-width="5"/>
<line x1="80.756612254641581000" y1="157.975513944690650000" x2="80.163179331185404000" y2="158.077185625337390000" stroke="orange" stroke-width="5"/>
<line x1="80.163179331185404000" y1="158.077185625337390000" x2="77.980048031987764000" y2="157.387295738154880000" stroke="orange" stroke-width="5"/>
<line x1="77.980048031987764000" y1="157.387295738154880000" x2="75.659634714134995000" y2="156.201807156562670000" stroke="orange" stroke-width="5"/>
<line x1="75.659634714134995000" y1="156.201807156562670000" x2="73.397070221193829000" y2="155.039379133336890000" stroke="yellow" stroke-width="5"/>
<line x1="73.397070221193829000" y1="155.039379133336890000" x2="70.778829143483563000" y2="153.813195501598190000" stroke="yellow" stroke-width="5"/>
<line x1="70.778829143483563000" y1="153.813195501598190000" x2="69.633562511635176000" y2="153.769705018716590000" stroke="blue" stroke-width="5"/>
<line x1="69.633562511635176000" y1="153.769705018716590000" x2="68.161021519319490000" y2="153.546125995974050000" stroke="blue" stroke-width="5"/>
<line x1="68.161021519319490000" y1="153.546125995974050000" x2="65.726035852551703000" y2="152.834877049090520000" stroke="blue" stroke-width="5"/>
<line x1="65.726035852551703000" y1="152.834877049090520000" x2="63.492338450953781000" y2="152.383828570000990000" stroke="blue" stroke-width="5"/>
<line x1="63.492338450953781000" y1="152.383828570000990000" x2="61.547987742432561000" y2="152.008362869689250000" stroke="blue" stroke-width="5"/>
<line x1="61.547987742432561000" y1="152.008362869689250000" x2="57.894280583206644000" y2="151.072899543874460000" stroke="blue" stroke-width="5"/>
<line x1="57.894280583206644000" y1="151.072899543874460000" x2="54.092080782935341000" y2="150.340340018157950000" stroke="yellow" stroke-width="5"/>
<line x1="54.092080782935341000" y1="150.340340018157950000" x2="49.352556496476268000" y2="149.933829222373650000" stroke="yellow" stroke-width="5"/>
<line x1="49.352556496476268000" y1="149.933829222373650000" x2="44.362020690167100000" y2="148.908148207535360000" stroke="orange" stroke-width="5"/>
<line x1="44.362020690167100000" y1="148.908148207535360000" x2="41.070002962703512000" y2="148.128292695057920000" stroke="orange" stroke-width="5"/>
<line x1="41.070002962703512000" y1="148.128292695057920000" x2="36.716062809934989000" y2="146.314149447728030000" stroke="orange" stroke-width="5"/>
<line x1="36.716062809934989000" y1="146.314149447728030000" x2="32.708086147234248000" y2="143.085492955253240000" stroke="red" stroke-width="5"/>
<line x1="32.708086147234248000" y1="143.085492955253240000" x2="28.790528327670820000" y2="139.991861688653930000" stroke="red" stroke-width="5"/>
<line x1="28.790528327670820000" y1="139.991861688653930000" x2="24.517540648191076000" y2="138.591172978587450000" stroke="orange" stroke-width="5"/>
<line x1="24.517540648191076000" y1="138.591172978587450000" x2="20.356172727451273000" y2="137.117442967224800000" stroke="orange" stroke-width="5"/>
<line x1="20.356172727451273000" y1="137.117442967224800000" x2="16.930123817782306000" y2="135.360590849560420000" stroke="orange" stroke-width="5"/>
<line x1="16.930123817782306000" y1="135.360590849560420000" x2="13.552220045037755000" y2="133.577010135645450000" stroke="orange" stroke-width="5"/>
<line x1="13.552220045037755000" y1="133.577010135645450000" x2="11.242433951377265000" y2="132.216953917244150000" stroke="orange" stroke-width="5"/>
<line x1="11.242433951377265000" y1="132.216953917244150000" x2="8.372581382567755500" y2="129.643991198922690000" stroke="orange" stroke-width="5"/>
<line x1="8.372581382567755500" y1="129.643991198922690000" x2="5.755624779786629100" y2="127.469789950129270000" stroke="orange" stroke-width="5"/>
<line x1="5.755624779786629100" y1="127.469789950129270000" x2="2.857984880313637200" y2="124.479804678398300000" stroke="orange" stroke-width="5"/>
<line x1="2.857984880313637200" y1="124.479804678398300000" x2="-0.831182744110410710" y2="121.171252238727730000" stroke="orange" stroke-width="5"/>
</svg><svg height="170" width="85" version="1.1" xmlns="http://www.w3.org/2000/svg">
<line x1="25.195257533506396000" y1="0.010130465529660258" x2="25.985566265121285000" y2="0.424822422036333140" stroke="orange" stroke-width="5"/>
<line x1="25.195257533506396000" y1="0.010130465529660258" x2="25.985566265121285000" y2="0.424822422036333140" stroke="orange" stroke-width="5"/>
<line x1="25.985566265121285000" y1="0.424822422036333140" x2="27.607866599734578000" y2="1.714276897036741200" stroke="orange" stroke-width="5"/>
<line x1="27.607866599734578000" y1="1.714276897036741200" x2="29.212404025002428000" y2="2.993149746974538900" stroke="orange" stroke-width="5"/>
<line x1="29.212404025002428000" y1="2.993149746974538900" x2="30.150458839890909000" y2="4.845155928016984200" stroke="orange" stroke-width="5"/>
<line x1="30.150458839890909000" y1="4.845155928016984200" x2="30.578511832354799000" y2="6.807037635572983800" stroke="orange" stroke-width="5"/>
<line x1="30.578511832354799000" y1="6.807037635572983800" x2="32.604661044541039000" y2="7.186518353123583200" stroke="orange" stroke-width="5"/>
<line x1="32.604661044541039000" y1="7.186518353123583200" x2="34.603564339201277000" y2="7.562221717694689500" stroke="yellow" stroke-width="5"/>
<line x1="34.603564339201277000" y1="7.562221717694689500" x2="36.383756637964780000" y2="7.957963720015595900" stroke="yellow" stroke-width="5"/>
<line x1="36.383756637964780000" y1="7.957963720015595900" x2="38.155059617521431000" y2="7.850398436756020000" stroke="orange" stroke-width="5"/>
<line x1="38.155059617521431000" y1="7.850398436756020000" x2="39.822847898710620000" y2="8.651048835626634000" stroke="orange" stroke-width="5"/>
<line x1="39.822847898710620000" y1="8.651048835626634000" x2="41.592367256554525000" y2="9.506557531166610200" stroke="orange" stroke-width="5"/>
<line x1="41.592367256554525000" y1="9.506557531166610200" x2="43.043890760276540000" y2="10.942701616431513000" stroke="orange" stroke-width="5"/>
<line x1="43.043890760276540000" y1="10.942701616431513000" x2="44.153538081657082000" y2="11.615732543076536000" stroke="orange" stroke-width="5"/>
<line x1="44.153538081657082000" y1="11.615732543076536000" x2="45.277041843828549000" y2="12.150007219643914000" stroke="orange" stroke-width="5"/>
<line x1="45.277041843828549000" y1="12.150007219643914000" x2="46.402561986480727000" y2="12.750906144871051000" stroke="orange" stroke-width="5"/>
<line x1="46.402561986480727000" y1="12.750906144871051000" x2="47.757060210941411000" y2="14.135216633359425000" stroke="orange" stroke-width="5"/>
<line x1="47.757060210941411000" y1="14.135216633359425000" x2="49.104783384062813000" y2="15.666449874524309000" stroke="red" stroke-width="5"/>
<line x1="49.104783384062813000" y1="15.666449874524309000" x2="49.448712038564679000" y2="17.826140004179457000" stroke="red" stroke-width="5"/>
<line x1="49.448712038564679000" y1="17.826140004179457000" x2="49.231819227567442000" y2="20.210022315245634000" stroke="red" stroke-width="5"/>
<line x1="49.231819227567442000" y1="20.210022315245634000" x2="48.768824784632557000" y2="22.856891980565376000" stroke="red" stroke-width="5"/>
<line x1="48.768824784632557000" y1="22.856891980565376000" x2="48.865040650270963000" y2="25.767469392189994000" stroke="red" stroke-width="5"/>
<line x1="48.865040650270963000" y1="25.767469392189994000" x2="48.773248948945209000" y2="28.346019227708190000" stroke="orange" stroke-width="5"/>
<line x1="48.773248948945209000" y1="28.346019227708190000" x2="47.358706880704538000" y2="31.548734051767742000" stroke="orange" stroke-width="5"/>
<line x1="47.358706880704538000" y1="31.548734051767742000" x2="45.842325614635030000" y2="35.437940732975363000" stroke="orange" stroke-width="5"/>
<line x1="45.842325614635030000" y1="35.437940732975363000" x2="44.318563009818760000" y2="39.350188328286208000" stroke="yellow" stroke-width="5"/>
<line x1="44.318563009818760000" y1="39.350188328286208000" x2="43.104787768207437000" y2="42.917787448917039000" stroke="yellow" stroke-width="5"/>
<line x1="43.104787768207437000" y1="42.917787448917039000" x2="41.567782499954106000" y2="45.982086091349210000" stroke="blue" stroke-width="5"/>
<line x1="41.567782499954106000" y1="45.982086091349210000" x2="39.562950382140244000" y2="48.760542961880439000" stroke="blue" stroke-width="5"/>
<line x1="39.562950382140244000" y1="48.760542961880439000" x2="38.076579056510738000" y2="51.411735436032885000" stroke="blue" stroke-width="5"/>
<line x1="38.076579056510738000" y1="51.411735436032885000" x2="37.437962338925317000" y2="54.239627019674920000" stroke="blue" stroke-width="5"/>
<line x1="37.437962338925317000" y1="54.239627019674920000" x2="37.258101376608941000" y2="57.240646144142140000" stroke="yellow" stroke-width="5"/>
<line x1="37.258101376608941000" y1="57.240646144142140000" x2="36.520869671548283000" y2="60.123049940063623000" stroke="yellow" stroke-width="5"/>
<line x1="36.520869671548283000" y1="60.123049940063623000" x2="36.380701989219986000" y2="62.739405220300014000" stroke="yellow" stroke-width="5"/>
<line x1="36.380701989219986000" y1="62.739405220300014000" x2="37.225271101592710000" y2="65.511787675862166000" stroke="yellow" stroke-width="5"/>
<line x1="37.225271101592710000" y1="65.511787675862166000" x2="38.065497982773635000" y2="68.424100816692416000" stroke="orange" stroke-width="5"/>
<line x1="38.065497982773635000" y1="68.424100816692416000" x2="38.721245584910740000" y2="72.388027248102418000" stroke="orange" stroke-width="5"/>
<line x1="38.721245584910740000" y1="72.388027248102418000" x2="38.963728114528557000" y2="77.275460641277505000" stroke="orange" stroke-width="5"/>
<line x1="38.963728114528557000" y1="77.275460641277505000" x2="39.290513338898869000" y2="81.777323301080429000" stroke="orange" stroke-width="5"/>
<line x1="39.290513338898869000" y1="81.777323301080429000" x2="39.501506843459950000" y2="86.102452730713082000" stroke="orange" stroke-width="5"/>
<line x1="39.501506843459950000" y1="86.102452730713082000" x2="40.323108097048745000" y2="91.311128209552265000" stroke="orange" stroke-width="5"/>
<line x1="40.323108097048745000" y1="91.311128209552265000" x2="41.503454562025311000" y2="94.726034001964052000" stroke="orange" stroke-width="5"/>
<line x1="41.503454562025311000" y1="94.726034001964052000" x2="42.860041246232647000" y2="97.951580285026324000" stroke="orange" stroke-width="5"/>
<line x1="42.860041246232647000" y1="97.951580285026324000" x2="44.393132485777485000" y2="101.281541224824660000" stroke="orange" stroke-width="5"/>
<line x1="44.393132485777485000" y1="101.281541224824660000" x2="45.970796551484874000" y2="104.871625141552610000" stroke="orange" stroke-width="5"/>
<line x1="45.970796551484874000" y1="104.871625141552610000" x2="47.076664879847101000" y2="108.280475452025560000" stroke="orange" stroke-width="5"/>
<line x1="47.076664879847101000" y1="108.280475452025560000" x2="49.258252318491643000" y2="110.758260644730970000" stroke="orange" stroke-width="5"/>
<line x1="49.258252318491643000" y1="110.758260644730970000" x2="51.315349582291802000" y2="112.715459594618450000" stroke="orange" stroke-width="5"/>
<line x1="51.315349582291802000" y1="112.715459594618450000" x2="53.295172086292951000" y2="114.553385898696580000" stroke="orange" stroke-width="5"/>
<line x1="53.295172086292951000" y1="114.553385898696580000" x2="55.427100595533844000" y2="117.460265131127610000" stroke="orange" stroke-width="5"/>
<line x1="55.427100595533844000" y1="117.460265131127610000" x2="56.938070114322826000" y2="120.149844694636190000" stroke="orange" stroke-width="5"/>
<line x1="56.938070114322826000" y1="120.149844694636190000" x2="59.693182044297323000" y2="123.975244769280750000" stroke="orange" stroke-width="5"/>
<line x1="59.693182044297323000" y1="123.975244769280750000" x2="62.694245571128903000" y2="127.736939353314900000" stroke="orange" stroke-width="5"/>
<line x1="62.694245571128903000" y1="127.736939353314900000" x2="65.106740562697780000" y2="132.276926573564340000" stroke="orange" stroke-width="5"/>
<line x1="65.106740562697780000" y1="132.276926573564340000" x2="67.232025971859656000" y2="136.536578754835230000" stroke="orange" stroke-width="5"/>
<line x1="67.232025971859656000" y1="136.536578754835230000" x2="69.106539184879352000" y2="140.039239555108050000" stroke="orange" stroke-width="5"/>
<line x1="69.106539184879352000" y1="140.039239555108050000" x2="72.032719273654990000" y2="144.188616978787880000" stroke="orange" stroke-width="5"/>
<line x1="72.032719273654990000" y1="144.188616978787880000" x2="74.690538524072480000" y2="146.712079035135190000" stroke="orange" stroke-width="5"/>
<line x1="74.690538524072480000" y1="146.712079035135190000" x2="76.969754679649981000" y2="149.255566634157930000" stroke="orange" stroke-width="5"/>
<line x1="76.969754679649981000" y1="149.255566634157930000" x2="78.693452461441296000" y2="151.189022104513870000" stroke="orange" stroke-width="5"/>
<line x1="78.693452461441296000" y1="151.189022104513870000" x2="78.959618940618526000" y2="152.960261526845330000" stroke="orange" stroke-width="5"/>
<line x1="78.959618940618526000" y1="152.960261526845330000" x2="79.438743710345136000" y2="154.223229788392330000" stroke="orange" stroke-width="5"/>
<line x1="79.438743710345136000" y1="154.223229788392330000" x2="80.009782860452560000" y2="155.201752372887030000" stroke="orange" stroke-width="5"/>
<line x1="80.009782860452560000" y1="155.201752372887030000" x2="79.965824607751443000" y2="156.144028366509560000" stroke="orange" stroke-width="5"/>
<line x1="79.965824607751443000" y1="156.144028366509560000" x2="79.747735368285220000" y2="157.407275967258410000" stroke="orange" stroke-width="5"/>
<line x1="79.747735368285220000" y1="157.407275967258410000" x2="80.034836713612009000" y2="159.513956076402370000" stroke="orange" stroke-width="5"/>
<line x1="80.034836713612009000" y1="159.513956076402370000" x2="79.619446152446329000" y2="160.142343089707680000" stroke="orange" stroke-width="5"/>
<line x1="79.619446152446329000" y1="160.142343089707680000" x2="79.079133768523292000" y2="160.846407486931300000" stroke="orange" stroke-width="5"/>
<line x1="79.079133768523292000" y1="160.846407486931300000" x2="78.806533974796992000" y2="160.610558329784850000" stroke="red" stroke-width="5"/>
<line x1="78.806533974796992000" y1="160.610558329784850000" x2="79.853829295218361000" y2="159.491888921784810000" stroke="red" stroke-width="5"/>
<line x1="79.853829295218361000" y1="159.491888921784810000" x2="80.858997301973588000" y2="158.381819935414800000" stroke="red" stroke-width="5"/>
<line x1="80.858997301973588000" y1="158.381819935414800000" x2="81.192007953342909000" y2="157.744377234973430000" stroke="orange" stroke-width="5"/>
<line x1="81.192007953342909000" y1="157.744377234973430000" x2="80.756612254641581000" y2="157.975513944690650000" stroke="orange" stroke-width="5"/>
<line x1="80.756612254641581000" y1="157.975513944690650000" x2="80.163179331185404000" y2="158.077185625337390000" stroke="orange" stroke-width="5"/>
<line x1="80.163179331185404000" y1="158.077185625337390000" x2="77.980048031987764000" y2="157.387295738154880000" stroke="orange" stroke-width="5"/>
<line x1="77.980048031987764000" y1="157.387295738154880000" x2="75.659634714134995000" y2="156.201807156562670000" stroke="orange" stroke-width="5"/>
<line x1="75.659634714134995000" y1="156.201807156562670000" x2="73.397070221193829000" y2="155.039379133336890000" stroke="yellow" stroke-width="5"/>
<line x1="73.397070221193829000" y1="155.039379133336890000" x2="70.778829143483563000" y2="153.813195501598190000" stroke="yellow" stroke-width="5"/>
<line x1="70.778829143483563000" y1="153.813195501598190000" x2="69.633562511635176000" y2="153.769705018716590000" stroke="blue" stroke-width="5"/>
<line x1="69.633562511635176000" y1="153.769705018716590000" x2="68.161021519319490000" y2="153.546125995974050000" stroke="blue" stroke-width="5"/>
<line x1="68.161021519319490000" y1="153.546125995974050000" x2="65.726035852551703000" y2="152.834877049090520000" stroke="blue" stroke-width="5"/>
<line x1="65.726035852551703000" y1="152.834877049090520000" x2="63.492338450953781000" y2="152.383828570000990000" stroke="blue" stroke-width="5"/>
<line x1="63.492338450953781000" y1="152.383828570000990000" x2="61.547987742432561000" y2="152.008362869689250000" stroke="blue" stroke-width="5"/>
<line x1="61.547987742432561000" y1="152.008362869689250000" x2="57.894280583206644000" y2="151.072899543874460000" stroke="blue" stroke-width="5"/>
<line x1="57.894280583206644000" y1="151.072899543874460000" x2="54.092080782935341000" y2="150.340340018157950000" stroke="yellow" stroke-width="5"/>
<line x1="54.092080782935341000" y1="150.340340018157950000" x2="49.352556496476268000" y2="149.933829222373650000" stroke="yellow" stroke-width="5"/>
<line x1="49.352556496476268000" y1="149.933829222373650000" x2="44.362020690167100000" y2="148.908148207535360000" stroke="orange" stroke-width="5"/>
<line x1="44.362020690167100000" y1="148.908148207535360000" x2="41.070002962703512000" y2="148.128292695057920000" stroke="orange" stroke-width="5"/>
<line x1="41.070002962703512000" y1="148.128292695057920000" x2="36.716062809934989000" y2="146.314149447728030000" stroke="orange" stroke-width="5"/>
<line x1="36.716062809934989000" y1="146.314149447728030000" x2="32.708086147234248000" y2="143.085492955253240000" stroke="red" stroke-width="5"/>
<line x1="32.708086147234248000" y1="143.085492955253240000" x2="28.790528327670820000" y2="139.991861688653930000" stroke="red" stroke-width="5"/>
<line x1="28.790528327670820000" y1="139.991861688653930000" x2="24.517540648191076000" y2="138.591172978587450000" stroke="orange" stroke-width="5"/>
<line x1="24.517540648191076000" y1="138.591172978587450000" x2="20.356172727451273000" y2="137.117442967224800000" stroke="orange" stroke-width="5"/>
<line x1="20.356172727451273000" y1="137.117442967224800000" x2="16.930123817782306000" y2="135.360590849560420000" stroke="orange" stroke-width="5"/>
<line x1="16.930123817782306000" y1="135.360590849560420000" x2="13.552220045037755000" y2="133.577010135645450000" stroke="orange" stroke-width="5"/>
<line x1="13.552220045037755000" y1="133.577010135645450000" x2="11.242433951377265000" y2="132.216953917244150000" stroke="orange" stroke-width="5"/>
<line x1="11.242433951377265000" y1="132.216953917244150000" x2="8.372581382567755500" y2="129.643991198922690000" stroke="orange" stroke-width="5"/>
<line x1="8.372581382567755500" y1="129.643991198922690000" x2="5.755624779786629100" y2="127.469789950129270000" stroke="orange" stroke-width="5"/>
<line x1="5.755624779786629100" y1="127.469789950129270000" x2="2.857984880313637200" y2="124.479804678398300000" stroke="orange" stroke-width="5"/>
<line x1="2.857984880313637200" y1="124.479804678398300000" x2="-0.831182744110410710" y2="121.171252238727730000" stroke="orange" stroke-width="5"/>
</svg>