<svg height="170" width="85" version="1.1" xmlns="http://www.w3.org/2000/svg">
<rect x="5" y="0"  width="85" height="170" style="fill:gray" />
<rect x="25" y="0"  width="10" height="10" style="fill:orange" />
<rect x="25" y="0"  width="10" height="10" style="fill:orange" />
<rect x="25" y="0"  width="10" height="10" style="fill:orange" />
<rect x="25" y="0"  width="10" height="10" style="fill:orange" />
<rect x="25" y="0"  width="10" height="10" style="fill:orange" />
<rect x="25" y="0"  width="10" height="10" style="fill:orange" />
<rect x="25" y="0"  width="10" height="10" style="fill:orange" />
<rect x="25" y="0"  width="10" height="10" style="fill:orange" />
<rect x="35" y="0"  width="10" height="10" style="fill:orange" />
<rect x="35" y="0"  width="10" height="10" style="fill:orange" />
<rect x="35" y="0"  width="10" height="10" style="fill:orange" />
<rect x="35" y="0"  width="10" height="10" style="fill:orange" />
<rect x="35" y="10"  width="10" height="10" style="fill:orange" />
<rect x="35" y="10"  width="10" height="10" style="fill:orange" />
<rect x="45" y="10"  width="10" height="10" style="fill:red" />
<rect x="45" y="10"  width="10" height="10" style="fill:red" />
<rect x="45" y="10"  width="10" height="10" style="fill:red" />
<rect x="45" y="10"  width="10" height="10" style="fill:red" />
<rect x="45" y="10"  width="10" height="10" style="fill:red" />
<rect x="45" y="20"  width="10" height="10" style="fill:orange" />
<rect x="45" y="20"  width="10" height="10" style="fill:orange" />
<rect x="45" y="20"  width="10" height="10" style="fill:orange" />
<rect x="45" y="20"  width="10" height="10" style="fill:orange" />
<rect x="45" y="30"  width="10" height="10" style="fill:yellow" />
<rect x="45" y="30"  width="10" height="10" style="fill:yellow" />
<rect x="35" y="30"  width="10" height="10" style="fill:yellow" />
<rect x="35" y="40"  width="10" height="10" style="fill:blue" />
<rect x="35" y="40"  width="10" height="10" style="fill:blue" />
<rect x="35" y="40"  width="10" height="10" style="fill:blue" />
<rect x="35" y="50"  width="10" height="10" style="fill:yellow" />
<rect x="35" y="50"  width="10" height="10" style="fill:yellow" />
<rect x="35" y="50"  width="10" height="10" style="fill:yellow" />
<rect x="35" y="60"  width="10" height="10" style="fill:orange" />
<rect x="35" y="60"  width="10" height="10" style="fill:orange" />
<rect x="35" y="60"  width="10" height="10" style="fill:orange" />
<rect x="35" y="60"  width="10" height="10" style="fill:orange" />
<rect x="35" y="70"  width="10" height="10" style="fill:orange" />
<rect x="35" y="70"  width="10" height="10" style="fill:orange" />
<rect x="35" y="80"  width="10" height="10" style="fill:orange" />
<rect x="35" y="80"  width="10" height="10" style="fill:orange" />
<rect x="35" y="90"  width="10" height="10" style="fill:orange" />
<rect x="35" y="90"  width="10" height="10" style="fill:orange" />
<rect x="35" y="90"  width="10" height="10" style="fill:orange" />
<rect x="35" y="100"  width="10" height="10" style="fill:orange" />
<rect x="45" y="100"  width="10" height="10" style="fill:orange" />
<rect x="45" y="100"  width="10" height="10" style="fill:orange" />
<rect x="45" y="110"  width="10" height="10" style="fill:orange" />
<rect x="45" y="110"  width="10" height="10" style="fill:orange" />
<rect x="45" y="110"  width="10" height="10" style="fill:orange" />
<rect x="55" y="110"  width="10" height="10" style="fill:orange" />
<rect x="55" y="120"  width="10" height="10" style="fill:orange" />
<rect x="55" y="120"  width="10" height="10" style="fill:orange" />
<rect x="55" y="120"  width="10" height="10" style="fill:orange" />
<rect x="65" y="130"  width="10" height="10" style="fill:orange" />
<rect x="65" y="130"  width="10" height="10" style="fill:orange" />
<rect x="65" y="140"  width="10" height="10" style="fill:orange" />
<rect x="65" y="140"  width="10" height="10" style="fill:orange" />
<rect x="65" y="140"  width="10" height="10" style="fill:orange" />
<rect x="75" y="140"  width="10" height="10" style="fill:orange" />
<rect x="75" y="150"  width="10" height="10" style="fill:orange" />
<rect x="75" y="150"  width="10" height="10" style="fill:orange" />
<rect x="75" y="150"  width="10" height="10" style="fill:orange" />
<rect x="75" y="150"  width="10" height="10" style="fill:orange" />
<rect x="75" y="150"  width="10" height="10" style="fill:orange" />
<rect x="75" y="150"  width="10" height="10" style="fill:orange" />
<rect x="75" y="150"  width="10" height="10" style="fill:orange" />
<rect x="75" y="160"  width="10" height="10" style="fill:orange" />
<rect x="75" y="160"  width="10" height="10" style="fill:orange" />
<rect x="75" y="160"  width="10" height="10" style="fill:orange" />
<rect x="75" y="150"  width="10" height="10" style="fill:orange" />
<rect x="75" y="150"  width="10" height="10" style="fill:orange" />
<rect x="75" y="150"  width="10" height="10" style="fill:orange" />
<rect x="75" y="150"  width="10" height="10" style="fill:orange" />
<rect x="75" y="150"  width="10" height="10" style="fill:orange" />
<rect x="75" y="150"  width="10" height="10" style="fill:orange" />
<rect x="75" y="150"  width="10" height="10" style="fill:orange" />
<rect x="65" y="150"  width="10" height="10" style="fill:blue" />
<rect x="65" y="150"  width="10" height="10" style="fill:blue" />
<rect x="65" y="150"  width="10" height="10" style="fill:blue" />
<rect x="65" y="150"  width="10" height="10" style="fill:blue" />
<rect x="65" y="150"  width="10" height="10" style="fill:blue" />
<rect x="55" y="150"  width="10" height="10" style="fill:blue" />
<rect x="55" y="150"  width="10" height="10" style="fill:blue" />
<rect x="55" y="150"  width="10" height="10" style="fill:blue" />
<rect x="45" y="150"  width="10" height="10" style="fill:yellow" />
<rect x="45" y="140"  width="10" height="10" style="fill:orange" />
<rect x="35" y="140"  width="10" height="10" style="fill:orange" />
<rect x="35" y="140"  width="10" height="10" style="fill:orange" />
<rect x="35" y="140"  width="10" height="10" style="fill:orange" />
<rect x="25" y="140"  width="10" height="10" style="fill:red" />
<rect x="25" y="130"  width="10" height="10" style="fill:orange" />
<rect x="15" y="130"  width="10" height="10" style="fill:orange" />
<rect x="15" y="130"  width="10" height="10" style="fill:orange" />
<rect x="15" y="130"  width="10" height="10" style="fill:orange" />
<rect x="5" y="130"  width="10" height="10" style="fill:orange" />
<rect x="5" y="130"  width="10" height="10" style="fill:orange" />
<rect x="5" y="120"  width="10" height="10" style="fill:orange" />
<rect x="5" y="120"  width="10" height="10" style="fill:orange" />
</svg><svg height="170" width="85" version="1.1" xmlns="http://www.w3.org/2000/svg">
<rect x="5" y="0"  width="85" height="170" style="fill:gray" />
<rect x="25" y="0"  width="10" height="10" style="fill:orange" />
<rect x="25" y="0"  width="10" height="10" style="fill:orange" />
<rect x="25" y="0"  width="10" height="10" style="fill:orange" />
<rect x="25" y="0"  width="10" height="10" style="fill:orange" />
<rect x="25" y="0"  width="10" height="10" style="fill:orange" />
<rect x="25" y="0"  width="10" height="10" style="fill:orange" />
<rect x="25" y="0"  width="10" height="10" style="fill:orange" />
<rect x="25" y="0"  width="10" height="10" style="fill:orange" />
<rect x="35" y="0"  width="10" height="10" style="fill:orange" />
<rect x="35" y="0"  width="10" height="10" style="fill:orange" />
<rect x="35" y="0"  width="10" height="10" style="fill:orange" />
<rect x="35" y="0"  width="10" height="10" style="fill:orange" />
<rect x="35" y="10"  width="10" height="10" style="fill:orange" />
<rect x="35" y="10"  width="10" height="10" style="fill:orange" />
<rect x="45" y="10"  width="10" height="10" style="fill:red" />
<rect x="45" y="10"  width="10" height="10" style="fill:red" />
<rect x="45" y="10"  width="10" height="10" style="fill:red" />
<rect x="45" y="10"  width="10" height="10" style="fill:red" />
<rect x="45" y="10"  width="10" height="10" style="fill:red" />
<rect x="45" y="20"  width="10" height="10" style="fill:orange" />
<rect x="45" y="20"  width="10" height="10" style="fill:orange" />
<rect x="45" y="20"  width="10" height="10" style="fill:orange" />
<rect x="45" y="20"  width="10" height="10" style="fill:orange" />
<rect x="45" y="30"  width="10" height="10" style="fill:yellow" />
<rect x="45" y="30"  width="10" height="10" style="fill:yellow" />
<rect x="35" y="30"  width="10" height="10" style="fill:yellow" />
<rect x="35" y="40"  width="10" height="10" style="fill:blue" />
<rect x="35" y="40"  width="10" height="10" style="fill:blue" />
<rect x="35" y="40"  width="10" height="10" style="fill:blue" />
<rect x="35" y="50"  width="10" height="10" style="fill:yellow" />
<rect x="35" y="50"  width="10" height="10" style="fill:yellow" />
<rect x="35" y="50"  width="10" height="10" style="fill:yellow" />
<rect x="35" y="60"  width="10" height="10" style="fill:orange" />
<rect x="35" y="60"  width="10" height="10" style="fill:orange" />
<rect x="35" y="60"  width="10" height="10" style="fill:orange" />
<rect x="35" y="60"  width="10" height="10" style="fill:orange" />
<rect x="35" y="70"  width="10" height="10" style="fill:orange" />
<rect x="35" y="70"  width="10" height="10" style="fill:orange" />
<rect x="35" y="80"  width="10" height="10" style="fill:orange" />
<rect x="35" y="80"  width="10" height="10" style="fill:orange" />
<rect x="35" y="90"  width="10" height="10" style="fill:orange" />
<rect x="35" y="90"  width="10" height="10" style="fill:orange" />
<rect x="35" y="90"  width="10" height="10" style="fill:orange" />
<rect x="35" y="100"  width="10" height="10" style="fill:orange" />
<rect x="45" y="100"  width="10" height="10" style="fill:orange" />
<rect x="45" y="100"  width="10" height="10" style="fill:orange" />
<rect x="45" y="110"  width="10" height="10" style="fill:orange" />
<rect x="45" y="110"  width="10" height="10" style="fill:orange" />
<rect x="45" y="110"  width="10" height="10" style="fill:orange" />
<rect x="55" y="110"  width="10" height="10" style="fill:orange" />
<rect x="55" y="120"  width="10" height="10" style="fill:orange" />
<rect x="55" y="120"  width="10" height="10" style="fill:orange" />
<rect x="55" y="120"  width="10" height="10" style="fill:orange" />
<rect x="65" y="130"  width="10" height="10" style="fill:orange" />
<rect x="65" y="130"  width="10" height="10" style="fill:orange" />
<rect x="65" y="140"  width="10" height="10" style="fill:orange" />
<rect x="65" y="140"  width="10" height="10" style="fill:orange" />
<rect x="65" y="140"  width="10" height="10" style="fill:orange" />
<rect x="75" y="140"  width="10" height="10" style="fill:orange" />
<rect x="75" y="150"  width="10" height="10" style="fill:orange" />
<rect x="75" y="150"  width="10" height="10" style="fill:orange" />
<rect x="75" y="150"  width="10" height="10" style="fill:orange" />
<rect x="75" y="150"  width="10" height="10" style="fill:orange" />
<rect x="75" y="150"  width="10" height="10" style="fill:orange" />
<rect x="75" y="150"  width="10" height="10" style="fill:orange" />
<rect x="75" y="150"  width="10" height="10" style="fill:orange" />
<rect x="75" y="160"  width="10" height="10" style="fill:orange" />
<rect x="75" y="160"  width="10" height="10" style="fill:orange" />
<rect x="75" y="160"  width="10" height="10" style="fill:orange" />
<rect x="75" y="150"  width="10" height="10" style="fill:orange" />
<rect x="75" y="150"  width="10" height="10" style="fill:orange" />
<rect x="75" y="150"  width="10" height="10" style="fill:orange" />
<rect x="75" y="150"  width="10" height="10" style="fill:orange" />
<rect x="75" y="150"  width="10" height="10" style="fill:orange" />
<rect x="75" y="150"  width="10" height="10" style="fill:orange" />
<rect x="75" y="150"  width="10" height="10" style="fill:orange" />
<rect x="65" y="150"  width="10" height="10" style="fill:blue" />
<rect x="65" y="150"  width="10" height="10" style="fill:blue" />
<rect x="65" y="150"  width="10" height="10" style="fill:blue" />
<rect x="65" y="150"  width="10" height="10" style="fill:blue" />
<rect x="65" y="150"  width="10" height="10" style="fill:blue" />
<rect x="55" y="150"  width="10" height="10" style="fill:blue" />
<rect x="55" y="150"  width="10" height="10" style="fill:blue" />
<rect x="55" y="150"  width="10" height="10" style="fill:blue" />
<rect x="45" y="150"  width="10" height="10" style="fill:yellow" />
<rect x="45" y="140"  width="10" height="10" style="fill:orange" />
<rect x="35" y="140"  width="10" height="10" style="fill:orange" />
<rect x="35" y="140"  width="10" height="10" style="fill:orange" />
<rect x="35" y="140"  width="10" height="10" style="fill:orange" />
<rect x="25" y="140"  width="10" height="10" style="fill:red" />
<rect x="25" y="130"  width="10" height="10" style="fill:orange" />
<rect x="15" y="130"  width="10" height="10" style="fill:orange" />
<rect x="15" y="130"  width="10" height="10" style="fill:orange" />
<rect x="15" y="130"  width="10" height="10" style="fill:orange" />
<rect x="5" y="130"  width="10" height="10" style="fill:orange" />
<rect x="5" y="130"  width="10" height="10" style="fill:orange" />
<rect x="5" y="120"  width="10" height="10" style="fill:orange" />
<rect x="5" y="120"  width="10" height="10" style="fill:orange" />
</svg><svg height="170" width="85" version="1.1" xmlns="http://www.w3.org/2000/svg">
<rect x="5" y="0"  width="85" height="170" style="fill:gray" />
<rect x="25" y="0"  width="10" height="10" style="fill:orange" />
<rect x="25" y="0"  width="10" height="10" style="fill:orange" />
<rect x="25" y="0"  width="10" height="10" style="fill:orange" />
<rect x="25" y="0"  width="10" height="10" style="fill:orange" />
<rect x="25" y="0"  width="10" height="10" style="fill:orange" />
<rect x="25" y="0"  width="10" height="10" style="fill:orange" />
<rect x="25" y="0"  width="10" height="10" style="fill:orange" />
<rect x="25" y="0"  width="10" height="10" style="fill:orange" />
<rect x="35" y="0"  width="10" height="10" style="fill:orange" />
<rect x="35" y="0"  width="10" height="10" style="fill:orange" />
<rect x="35" y="0"  width="10" height="10" style="fill:orange" />
<rect x="35" y="0"  width="10" height="10" style="fill:orange" />
<rect x="35" y="10"  width="10" height="10" style="fill:orange" />
<rect x="35" y="10"  width="10" height="10" style="fill:orange" />
<rect x="45" y="10"  width="10" height="10" style="fill:red" />
<rect x="45" y="10"  width="10" height="10" style="fill:red" />
<rect x="45" y="10"  width="10" height="10" style="fill:red" />
<rect x="45" y="10"  width="10" height="10" style="fill:red" />
<rect x="45" y="10"  width="10" height="10" style="fill:red" />
<rect x="45" y="20"  width="10" height="10" style="fill:orange" />
<rect x="45" y="20"  width="10" height="10" style="fill:orange" />
<rect x="45" y="20"  width="10" height="10" style="fill:orange" />
<rect x="45" y="20"  width="10" height="10" style="fill:orange" />
<rect x="45" y="30"  width="10" height="10" style="fill:yellow" />
<rect x="45" y="30"  width="10" height="10" style="fill:yellow" />
<rect x="35" y="30"  width="10" height="10" style="fill:yellow" />
<rect x="35" y="40"  width="10" height="10" style="fill:blue" />
<rect x="35" y="40"  width="10" height="10" style="fill:blue" />
<rect x="35" y="40"  width="10" height="10" style="fill:blue" />
<rect x="35" y="50"  width="10" height="10" style="fill:yellow" />
<rect x="35" y="50"  width="10" height="10" style="fill:yellow" />
<rect x="35" y="50"  width="10" height="10" style="fill:yellow" />
<rect x="35" y="60"  width="10" height="10" style="fill:orange" />
<rect x="35" y="60"  width="10" height="10" style="fill:orange" />
<rect x="35" y="60"  width="10" height="10" style="fill:orange" />
<rect x="35" y="60"  width="10" height="10" style="fill:orange" />
<rect x="35" y="70"  width="10" height="10" style="fill:orange" />
<rect x="35" y="70"  width="10" height="10" style="fill:orange" />
<rect x="35" y="80"  width="10" height="10" style="fill:orange" />
<rect x="35" y="80"  width="10" height="10" style="fill:orange" />
<rect x="35" y="90"  width="10" height="10" style="fill:orange" />
<rect x="35" y="90"  width="10" height="10" style="fill:orange" />
<rect x="35" y="90"  width="10" height="10" style="fill:orange" />
<rect x="35" y="100"  width="10" height="10" style="fill:orange" />
<rect x="45" y="100"  width="10" height="10" style="fill:orange" />
<rect x="45" y="100"  width="10" height="10" style="fill:orange" />
<rect x="45" y="110"  width="10" height="10" style="fill:orange" />
<rect x="45" y="110"  width="10" height="10" style="fill:orange" />
<rect x="45" y="110"  width="10" height="10" style="fill:orange" />
<rect x="55" y="110"  width="10" height="10" style="fill:orange" />
<rect x="55" y="120"  width="10" height="10" style="fill:orange" />
<rect x="55" y="120"  width="10" height="10" style="fill:orange" />
<rect x="55" y="120"  width="10" height="10" style="fill:orange" />
<rect x="65" y="130"  width="10" height="10" style="fill:orange" />
<rect x="65" y="130"  width="10" height="10" style="fill:orange" />
<rect x="65" y="140"  width="10" height="10" style="fill:orange" />
<rect x="65" y="140"  width="10" height="10" style="fill:orange" />
<rect x="65" y="140"  width="10" height="10" style="fill:orange" />
<rect x="75" y="140"  width="10" height="10" style="fill:orange" />
<rect x="75" y="150"  width="10" height="10" style="fill:orange" />
<rect x="75" y="150"  width="10" height="10" style="fill:orange" />
<rect x="75" y="150"  width="10" height="10" style="fill:orange" />
<rect x="75" y="150"  width="10" height="10" style="fill:orange" />
<rect x="75" y="150"  width="10" height="10" style="fill:orange" />
<rect x="75" y="150"  width="10" height="10" style="fill:orange" />
<rect x="75" y="150"  width="10" height="10" style="fill:orange" />
<rect x="75" y="160"  width="10" height="10" style="fill:orange" />
<rect x="75" y="160"  width="10" height="10" style="fill:orange" />
<rect x="75" y="160"  width="10" height="10" style="fill:orange" />
<rect x="75" y="150"  width="10" height="10" style="fill:orange" />
<rect x="75" y="150"  width="10" height="10" style="fill:orange" />
<rect x="75" y="150"  width="10" height="10" style="fill:orange" />
<rect x="75" y="150"  width="10" height="10" style="fill:orange" />
<rect x="75" y="150"  width="10" height="10" style="fill:orange" />
<rect x="75" y="150"  width="10" height="10" style="fill:orange" />
<rect x="75" y="150"  width="10" height="10" style="fill:orange" />
<rect x="65" y="150"  width="10" height="10" style="fill:blue" />
<rect x="65" y="150"  width="10" height="10" style="fill:blue" />
<rect x="65" y="150"  width="10" height="10" style="fill:blue" />
<rect x="65" y="150"  width="10" height="10" style="fill:blue" />
<rect x="65" y="150"  width="10" height="10" style="fill:blue" />
<rect x="55" y="150"  width="10" height="10" style="fill:blue" />
<rect x="55" y="150"  width="10" height="10" style="fill:blue" />
<rect x="55" y="150"  width="10" height="10" style="fill:blue" />
<rect x="45" y="150"  width="10" height="10" style="fill:yellow" />
<rect x="45" y="140"  width="10" height="10" style="fill:orange" />
<rect x="35" y="140"  width="10" height="10" style="fill:orange" />
<rect x="35" y="140"  width="10" height="10" style="fill:orange" />
<rect x="35" y="140"  width="10" height="10" style="fill:orange" />
<rect x="25" y="140"  width="10" height="10" style="fill:red" />
<rect x="25" y="130"  width="10" height="10" style="fill:orange" />
<rect x="15" y="130"  width="10" height="10" style="fill:orange" />
<rect x="15" y="130"  width="10" height="10" style="fill:orange" />
<rect x="15" y="130"  width="10" height="10" style="fill:orange" />
<rect x="5" y="130"  width="10" height="10" style="fill:orange" />
<rect x="5" y="130"  width="10" height="10" style="fill:orange" />
<rect x="5" y="120"  width="10" height="10" style="fill:orange" />
<rect x="5" y="120"  width="10" height="10" style="fill:orange" />
</svg>